<?xml version="1.0" encoding="UTF-8"?>
<svg version="1.1" xmlns="http://www.w3.org/2000/svg" width="345" height="82">
<path d="M0 0 C113.85 0 227.7 0 345 0 C345 27.06 345 54.12 345 82 C231.15 82 117.3 82 0 82 C0 54.94 0 27.88 0 0 Z " fill="#FEFCFC" transform="translate(0,0)"/>
<path d="M0 0 C3.60817082 0.76769592 4.63431408 1.78440403 6.9375 4.625 C7.95650391 5.8625 7.95650391 5.8625 8.99609375 7.125 C11.17599838 9.93212065 13.35028269 12.73711139 15.44921875 15.60546875 C17.02973979 17.75016528 18.66507743 19.84382301 20.3125 21.9375 C23.60027553 26.15018821 26.76112343 30.44362452 29.87109375 34.7890625 C31.28416851 36.72836737 32.73704442 38.639123 34.22265625 40.5234375 C40.4375 48.52491182 40.4375 48.52491182 40.4375 52.8125 C40.2725 53.740625 40.1075 54.66875 39.9375 55.625 C37.00541631 57.09104184 34.05496962 56.763787 30.84155273 56.75439453 C29.74624741 56.75702301 29.74624741 56.75702301 28.6288147 56.75970459 C26.20955038 56.76411436 23.79035885 56.76118849 21.37109375 56.7578125 C19.69482916 56.75848572 18.01856467 56.75945589 16.34230042 56.76071167 C12.82755606 56.7621874 9.31283711 56.76003782 5.7980957 56.75537109 C1.28283134 56.74966949 -3.23237365 56.75295633 -7.74763584 56.75894356 C-11.20904492 56.7625488 -14.6704398 56.76141083 -18.13184929 56.75881577 C-19.79730168 56.75814662 -21.46275534 56.75897448 -23.12820625 56.76129532 C-25.45082157 56.76382172 -27.77333926 56.75998166 -30.09594727 56.75439453 C-31.1377993 56.75743088 -31.1377993 56.75743088 -32.20069885 56.76052856 C-36.94823632 56.73926368 -36.94823632 56.73926368 -38.0625 55.625 C-38.81979221 51.29761592 -37.86761123 48.98496373 -35.45703125 45.51171875 C-34.91119385 44.71878418 -34.36535645 43.92584961 -33.80297852 43.10888672 C-33.22862061 42.2892041 -32.6542627 41.46952148 -32.0625 40.625 C-31.51972412 39.84012207 -30.97694824 39.05524414 -30.41772461 38.24658203 C-28.72459145 35.80408669 -27.02037642 33.36970644 -25.3125 30.9375 C-24.70414307 30.07044434 -24.09578613 29.20338867 -23.46899414 28.31005859 C-21.66878362 25.74699081 -19.8661908 23.18561951 -18.0625 20.625 C-17.55509277 19.90393066 -17.04768555 19.18286133 -16.52490234 18.43994141 C-15.18660115 16.54090721 -13.844347 14.6447575 -12.5 12.75 C-11.75621094 11.70070313 -11.01242188 10.65140625 -10.24609375 9.5703125 C-9.52550781 8.59835938 -8.80492188 7.62640625 -8.0625 6.625 C-7.67465332 6.06006836 -7.28680664 5.49513672 -6.88720703 4.91308594 C-4.75859069 2.0145085 -3.57545351 0.72968439 0 0 Z " fill="#365494" transform="translate(47.0625,12.375)"/>
<path d="M0 0 C4.45716589 0.01318688 8.52221025 0.17722177 12.890625 1.1328125 C13.550625 0.8028125 14.210625 0.4728125 14.890625 0.1328125 C16.89022512 0.0928205 18.89109742 0.08934451 20.890625 0.1328125 C20.890625 0.7928125 20.890625 1.4528125 20.890625 2.1328125 C21.550625 2.1328125 22.210625 2.1328125 22.890625 2.1328125 C22.890625 2.7928125 22.890625 3.4528125 22.890625 4.1328125 C24.210625 3.8028125 25.530625 3.4728125 26.890625 3.1328125 C26.890625 2.4728125 26.890625 1.8128125 26.890625 1.1328125 C29.530625 1.1328125 32.170625 1.1328125 34.890625 1.1328125 C33.890625 6.1328125 32.890625 11.1328125 31.890625 16.1328125 C36.19563182 13.90030454 38.63406726 11.26908869 41.578125 7.4453125 C42.97160898 5.6396383 44.39928505 3.85854773 45.890625 2.1328125 C46.550625 2.1328125 47.210625 2.1328125 47.890625 2.1328125 C47.890625 8.0728125 47.890625 14.0128125 47.890625 20.1328125 C45.580625 20.1328125 43.270625 20.1328125 40.890625 20.1328125 C40.890625 19.1428125 40.890625 18.1528125 40.890625 17.1328125 C39.900625 17.1328125 38.910625 17.1328125 37.890625 17.1328125 C37.890625 18.1228125 37.890625 19.1128125 37.890625 20.1328125 C31.620625 20.1328125 25.350625 20.1328125 18.890625 20.1328125 C17.900625 17.6578125 17.900625 17.6578125 16.890625 15.1328125 C16.560625 17.1128125 16.230625 19.0928125 15.890625 21.1328125 C5.85786589 21.92974088 -4.04583282 22.26128325 -14.109375 22.1328125 C-13.779375 20.1528125 -13.449375 18.1728125 -13.109375 16.1328125 C-14.759375 16.1328125 -16.409375 16.1328125 -18.109375 16.1328125 C-18.109375 17.4528125 -18.109375 18.7728125 -18.109375 20.1328125 C-25.699375 20.1328125 -33.289375 20.1328125 -41.109375 20.1328125 C-40.614375 15.6778125 -40.614375 15.6778125 -40.109375 11.1328125 C-40.769375 11.7928125 -41.429375 12.4528125 -42.109375 13.1328125 C-44.09758813 13.53045513 -46.09881839 13.87056599 -48.109375 14.1328125 C-48.439375 16.1128125 -48.769375 18.0928125 -49.109375 20.1328125 C-51.419375 20.1328125 -53.729375 20.1328125 -56.109375 20.1328125 C-55.119375 14.1928125 -54.129375 8.2528125 -53.109375 2.1328125 C-41.484375 2.0078125 -41.484375 2.0078125 -38.109375 3.1328125 C-36.71497836 3.19946626 -35.31767625 3.21819449 -33.921875 3.1953125 C-32.66375 3.1746875 -31.405625 3.1540625 -30.109375 3.1328125 C-31.099375 3.6278125 -31.099375 3.6278125 -32.109375 4.1328125 C-32.51666728 6.45437847 -32.85376177 8.7896912 -33.109375 11.1328125 C-31.459375 10.8028125 -29.809375 10.4728125 -28.109375 10.1328125 C-28.109375 7.8228125 -28.109375 5.5128125 -28.109375 3.1328125 C-25.469375 3.1328125 -22.829375 3.1328125 -20.109375 3.1328125 C-20.769375 3.4628125 -21.429375 3.7928125 -22.109375 4.1328125 C-22.57891761 7.17862519 -22.57891761 7.17862519 -22.734375 10.6953125 C-22.80914062 11.89285156 -22.88390625 13.09039062 -22.9609375 14.32421875 C-23.00992188 15.25105469 -23.05890625 16.17789063 -23.109375 17.1328125 C-21.10653522 16.3820485 -21.10653522 16.3820485 -19.109375 15.1328125 C-18.37861852 12.8187503 -17.70799242 10.48452381 -17.109375 8.1328125 C-16.449375 7.8028125 -15.789375 7.4728125 -15.109375 7.1328125 C-14.779375 6.1428125 -14.449375 5.1528125 -14.109375 4.1328125 C-13.449375 4.1328125 -12.789375 4.1328125 -12.109375 4.1328125 C-12.109375 3.1428125 -12.109375 2.1528125 -12.109375 1.1328125 C-10.10982754 1.09026894 -8.10895864 1.09200467 -6.109375 1.1328125 C-5.109375 2.1328125 -5.109375 2.1328125 -5.046875 5.1953125 C-5.0675 6.1646875 -5.088125 7.1340625 -5.109375 8.1328125 C-4.449375 8.1328125 -3.789375 8.1328125 -3.109375 8.1328125 C-3.13 6.9984375 -3.150625 5.8640625 -3.171875 4.6953125 C-3.09291757 0.19473925 -3.09291757 0.19473925 0 0 Z " fill="#FDC8C8" transform="translate(229.109375,21.8671875)"/>
<path d="M0 0 C1.23556641 0.01740234 1.23556641 0.01740234 2.49609375 0.03515625 C3.32238281 0.04417969 4.14867188 0.05320312 5 0.0625 C5.63808594 0.07410156 6.27617187 0.08570312 6.93359375 0.09765625 C6.79210386 1.70221185 6.64523689 3.30629392 6.49609375 4.91015625 C6.41488281 5.80347656 6.33367187 6.69679688 6.25 7.6171875 C5.93359375 10.09765625 5.93359375 10.09765625 4.93359375 13.09765625 C6.25359375 13.09765625 7.57359375 13.09765625 8.93359375 13.09765625 C8.83046875 12.39640625 8.72734375 11.69515625 8.62109375 10.97265625 C9.07308528 6.81433421 11.02838712 5.00286288 13.93359375 2.09765625 C19.72529823 -0.69833902 27.13595479 1.16510993 32.93359375 3.09765625 C32.93359375 2.10765625 32.93359375 1.11765625 32.93359375 0.09765625 C37.70606781 -0.37023336 40.88446957 -0.58748607 44.99609375 2.09765625 C47.59804813 6.12648884 47.33358753 8.37772968 46.93359375 13.09765625 C46.27359375 13.09765625 45.61359375 13.09765625 44.93359375 13.09765625 C44.89234375 13.86078125 44.85109375 14.62390625 44.80859375 15.41015625 C43.93359375 18.09765625 43.93359375 18.09765625 41.37109375 19.91015625 C35.32621124 21.99838839 30.15099904 21.15916447 23.93359375 20.09765625 C23.43859375 20.59265625 23.43859375 20.59265625 22.93359375 21.09765625 C19.03522493 21.37150861 15.17330792 21.40002556 11.37109375 20.47265625 C8.73853383 19.89211607 8.73853383 19.89211607 5.49609375 21.09765625 C-0.58102605 22.85404926 -6.86921891 21.74174595 -13.06640625 21.09765625 C-14.06640625 18.09765625 -14.06640625 18.09765625 -13.06640625 15.09765625 C-14.38640625 15.42765625 -15.70640625 15.75765625 -17.06640625 16.09765625 C-17.39640625 17.41765625 -17.72640625 18.73765625 -18.06640625 20.09765625 C-19.71640625 20.09765625 -21.36640625 20.09765625 -23.06640625 20.09765625 C-22.73640625 18.44765625 -22.40640625 16.79765625 -22.06640625 15.09765625 C-21.40640625 15.09765625 -20.74640625 15.09765625 -20.06640625 15.09765625 C-19.79828125 14.19015625 -19.53015625 13.28265625 -19.25390625 12.34765625 C-18.16508993 9.36773791 -17.20249524 7.41175266 -15.06640625 5.09765625 C-14.40640625 5.09765625 -13.74640625 5.09765625 -13.06640625 5.09765625 C-12.73640625 3.77765625 -12.40640625 2.45765625 -12.06640625 1.09765625 C-9.75640625 1.09765625 -7.44640625 1.09765625 -5.06640625 1.09765625 C-5.06640625 3.07765625 -5.06640625 5.05765625 -5.06640625 7.09765625 C-4.40640625 7.09765625 -3.74640625 7.09765625 -3.06640625 7.09765625 C-3.08703125 6.12828125 -3.10765625 5.15890625 -3.12890625 4.16015625 C-3.04694378 0.14399545 -3.04694378 0.14399545 0 0 Z " fill="#DD8E94" transform="translate(122.06640625,21.90234375)"/>
<path d="M0 0 C2.67697189 0.18520358 3.75019712 0.73922759 5.61230469 2.68310547 C6.12696289 3.40385254 6.64162109 4.12459961 7.171875 4.8671875 C7.75042236 5.66552002 8.32896973 6.46385254 8.92504883 7.28637695 C9.52728271 8.14062256 10.1295166 8.99486816 10.75 9.875 C11.99865863 11.6159136 13.24735635 13.35679916 14.49609375 15.09765625 C15.09663574 15.94215332 15.69717773 16.78665039 16.31591797 17.65673828 C17.73385656 19.62968328 19.17805749 21.57128262 20.66015625 23.49609375 C21.37042969 24.42550781 22.08070312 25.35492188 22.8125 26.3125 C23.41707031 27.09238281 24.02164063 27.87226562 24.64453125 28.67578125 C26.25783465 31.44210841 26.64874256 33.838683 27 37 C26.01 37 25.02 37 24 37 C23.484375 36.05253906 22.96875 35.10507812 22.4375 34.12890625 C19.60879917 29.17992483 16.29640614 24.58212245 13 19.9375 C11.77022988 18.19704082 10.54104813 16.45616572 9.3125 14.71484375 C8.73757812 13.90257324 8.16265625 13.09030273 7.5703125 12.25341797 C6.23569285 10.33822218 4.95143753 8.40343521 3.6875 6.44140625 C2.23051822 3.91463854 2.23051822 3.91463854 0 3 C-0.25072266 3.7019751 -0.50144531 4.4039502 -0.75976562 5.12719727 C-2.15217824 8.35249633 -3.88375731 11.04937754 -5.84375 13.96484375 C-6.60297381 15.10604713 -7.36208494 16.24732549 -8.12109375 17.38867188 C-9.3103643 19.16521531 -10.50183784 20.94022974 -11.69580078 22.71362305 C-12.85520076 24.43932507 -14.00605945 26.17049498 -15.15625 27.90234375 C-16.18975586 29.44136353 -16.18975586 29.44136353 -17.24414062 31.01147461 C-18.98030031 33.96647054 -19.93070547 36.76061648 -21 40 C-22.62652316 41.70586575 -24.29006566 43.3777546 -26 45 C-26.33 45.99 -26.66 46.98 -27 48 C-26.34 47.649375 -25.68 47.29875 -25 46.9375 C-20.9486909 45.67146591 -18.16625445 46.29385518 -14 47 C-14.11859375 46.32453125 -14.2371875 45.6490625 -14.359375 44.953125 C-14.74756611 42.26684255 -15.03021741 39.71524989 -15 37 C-13.3125 34.9375 -13.3125 34.9375 -11 33 C-9.84582312 30.74956193 -8.88502292 28.4620603 -7.9296875 26.12109375 C-7 24 -7 24 -5 21 C-1.875 20.8125 -1.875 20.8125 1 21 C0.57847656 21.81984375 0.15695313 22.6396875 -0.27734375 23.484375 C-0.82519531 24.56203125 -1.37304688 25.6396875 -1.9375 26.75 C-2.75541016 28.35101563 -2.75541016 28.35101563 -3.58984375 29.984375 C-4.71216275 32.38445885 -5.50501659 34.41856752 -6 37 C-3.36 37 -0.72 37 2 37 C1.67 37.5775 1.34 38.155 1 38.75 C-0.27075898 41.19883862 -0.27075898 41.19883862 0 45 C3.63 45 7.26 45 11 45 C11 44.34 11 43.68 11 43 C7.535 43.495 7.535 43.495 4 44 C4 43.01 4 42.02 4 41 C6.97 41 9.94 41 13 41 C13.495 42.98 13.495 42.98 14 45 C15.41655793 45.0272415 16.83327045 45.04650467 18.25 45.0625 C19.43335937 45.07990234 19.43335937 45.07990234 20.640625 45.09765625 C22.90691002 45.00385306 24.8288895 44.63241063 27 44 C27 42.02 27 40.04 27 38 C30.83146596 39.56096761 33.28148054 41.91411305 36 45 C36.8125 47.3125 36.8125 47.3125 37 49 C34.14429301 50.4278535 31.72285644 50.11941486 28.53076172 50.11352539 C27.53545944 50.11374443 27.53545944 50.11374443 26.52005005 50.1139679 C24.32322947 50.11327031 22.1264933 50.10548514 19.9296875 50.09765625 C18.40796963 50.09579152 16.88625116 50.09436788 15.36453247 50.09336853 C11.35648953 50.08954767 7.34848274 50.07972104 3.3404541 50.06866455 C-0.74828604 50.05844118 -4.83703201 50.05386892 -8.92578125 50.04882812 C-16.95053744 50.0380984 -24.97526422 50.02102713 -33 50 C-32.21597382 46.15987176 -30.8599193 44.69168876 -28 42 C-25.9846445 39.66218762 -24.91032468 37.77297387 -23.765625 34.875 C-21.88384825 30.41639663 -19.1581503 26.70202984 -16.3125 22.8125 C-15.23696026 21.31865854 -14.1627479 19.82386052 -13.08984375 18.328125 C-12.56503418 17.59787109 -12.04022461 16.86761719 -11.49951172 16.11523438 C-8.73747323 12.21906025 -6.13169006 8.22307737 -3.5234375 4.22265625 C-2 2 -2 2 0 0 Z " fill="#D1909C" transform="translate(46,15)"/>
<path d="M0 0 C4.26019987 1.42006662 5.69465712 4.58700183 8.0625 8.1875 C9.03779712 9.64147459 10.01438841 11.0945818 10.9921875 12.546875 C11.4881543 13.28615234 11.98412109 14.02542969 12.49511719 14.78710938 C15.24653826 18.83300176 18.12424799 22.78842764 21.00219727 26.74487305 C24 30.89581793 24 30.89581793 24 32 C14.43 32 4.86 32 -5 32 C-4.0111713 26.06702777 -3.01123597 23.85683221 0 19 C-1.65 19 -3.3 19 -5 19 C-5.24234375 19.58007812 -5.4846875 20.16015625 -5.734375 20.7578125 C-7.77683974 25.51832647 -9.8335563 29.88362319 -13 34 C-13.66 34 -14.32 34 -15 34 C-14.67 37.3 -14.34 40.6 -14 44 C-15.8253125 43.9690625 -15.8253125 43.9690625 -17.6875 43.9375 C-20.91977322 43.93175884 -23.84934741 44.21233685 -27 45 C-26.64787252 41.83085269 -25.93922746 40.942344 -23.5625 38.6875 C-20.79437704 36.24332945 -20.79437704 36.24332945 -20.3359375 33.08984375 C-18.75126921 26.9912235 -14.58740074 21.99029131 -11.0625 16.875 C-9.61504354 14.74796849 -8.16839889 12.62038427 -6.72265625 10.4921875 C-6.08078369 9.55745605 -5.43891113 8.62272461 -4.77758789 7.65966797 C-3.10020265 5.14992551 -1.52907821 2.6021724 0 0 Z " fill="#0C4C9D" transform="translate(46,18)"/>
<path d="M0 0 C2.64 0 5.28 0 8 0 C8 0.99 8 1.98 8 3 C8.99 2.34 9.98 1.68 11 1 C13.91796875 0.8046875 13.91796875 0.8046875 17.1875 0.875 C18.81751953 0.90207031 18.81751953 0.90207031 20.48046875 0.9296875 C21.72763672 0.96449219 21.72763672 0.96449219 23 1 C23 3.31 23 5.62 23 8 C24.65 8 26.3 8 28 8 C28.66 5.69 29.32 3.38 30 1 C31.32 1 32.64 1 34 1 C34 1.99 34 2.98 34 4 C34.99 4 35.98 4 37 4 C37 3.01 37 2.02 37 1 C38.299375 1.020625 39.59875 1.04125 40.9375 1.0625 C46.6811173 1.07898097 52.38470745 0.70258068 58.10913086 0.26782227 C61.59353972 0.02813705 64.67135608 -0.17635322 68 1 C68 1.99 68 2.98 68 4 C68.99 4 69.98 4 71 4 C71 3.01 71 2.02 71 1 C71.99 1 72.98 1 74 1 C74 3.97 74 6.94 74 10 C72.68 10 71.36 10 70 10 C69.67 10.66 69.34 11.32 69 12 C57.12 12 45.24 12 33 12 C33 11.34 33 10.68 33 10 C32.01 10.33 31.02 10.66 30 11 C27.95881299 11.04425338 25.91628742 11.03935012 23.875 11 C21.91702695 10.96243697 19.95777517 10.95324716 18 11 C17.67 11.33 17.34 11.66 17 12 C15.00041636 12.04080783 12.99954746 12.04254356 11 12 C10.67 11.01 10.34 10.02 10 9 C9.34 9 8.68 9 8 9 C8 9.66 8 10.32 8 11 C5.36 10.67 2.72 10.34 0 10 C0 6.7 0 3.4 0 0 Z " fill="#E19599" transform="translate(175,55)"/>
<path d="M0 0 C11.625 -0.125 11.625 -0.125 15 1 C16.39439664 1.06665376 17.79169875 1.08538199 19.1875 1.0625 C20.445625 1.041875 21.70375 1.02125 23 1 C22.01 1.495 22.01 1.495 21 2 C20.59270772 4.32156597 20.25561323 6.6568787 20 9 C21.65 8.67 23.3 8.34 25 8 C25 5.69 25 3.38 25 1 C27.64 1 30.28 1 33 1 C32.34 1.33 31.68 1.66 31 2 C30.53045739 5.04581269 30.53045739 5.04581269 30.375 8.5625 C30.30023438 9.76003906 30.22546875 10.95757812 30.1484375 12.19140625 C30.09945312 13.11824219 30.05046875 14.04507813 30 15 C34.05969337 13.45565195 35.95306577 10.82402463 38.5625 7.4375 C42.67094516 2.10968495 42.67094516 2.10968495 46 1 C46 6.61 46 12.22 46 18 C43.69 18 41.38 18 39 18 C39.33 16.68 39.66 15.36 40 14 C38.35 14 36.7 14 35 14 C35 15.32 35 16.64 35 18 C27.41 18 19.82 18 12 18 C12.33 15.03 12.66 12.06 13 9 C12.34 9.66 11.68 10.32 11 11 C9.01178687 11.39764263 7.01055661 11.73775349 5 12 C4.67 13.98 4.34 15.96 4 18 C1.69 18 -0.62 18 -3 18 C-2.01 12.06 -1.02 6.12 0 0 Z " fill="#134998" transform="translate(176,24)"/>
<path d="M0 0 C4.27081914 -0.02897435 8.54161309 -0.04678996 12.8125 -0.0625 C14.63491211 -0.07506836 14.63491211 -0.07506836 16.49414062 -0.08789062 C18.23920898 -0.09272461 18.23920898 -0.09272461 20.01953125 -0.09765625 C21.09307861 -0.10289307 22.16662598 -0.10812988 23.27270508 -0.11352539 C26 0 26 0 29 1 C30.98834962 5.39529916 31.19118486 9.22037853 31 14 C32.32 14.33 33.64 14.66 35 15 C35 16.65 35 18.3 35 20 C32.46653542 20.07037402 30.2762137 20.07102638 27.8125 19.4375 C25.91567768 18.77357897 25.91567768 18.77357897 24 20 C22.12620395 20.07033769 20.24998898 20.0843022 18.375 20.0625 C17.37210937 20.05347656 16.36921875 20.04445313 15.3359375 20.03515625 C14.56507813 20.02355469 13.79421875 20.01195313 13 20 C12.67 19.01 12.34 18.02 12 17 C12.66 17 13.32 17 14 17 C14.33 13.7 14.66 10.4 15 7 C13.02 7.33 11.04 7.66 9 8 C8.67 11.63 8.34 15.26 8 19 C5.36 19 2.72 19 0 19 C0 18.34 0 17.68 0 17 C0.66 17 1.32 17 2 17 C2.33 13.7 2.66 10.4 3 7 C2.01 7 1.02 7 0 7 C0 4.69 0 2.38 0 0 Z " fill="#1A4A96" transform="translate(301,23)"/>
<path d="M0 0 C0.66 0 1.32 0 2 0 C2 5.94 2 11.88 2 18 C-0.31 18 -2.62 18 -5 18 C-5 17.01 -5 16.02 -5 15 C-5.99 15 -6.98 15 -8 15 C-8 15.99 -8 16.98 -8 18 C-14.27 18 -20.54 18 -27 18 C-27.66 16.35 -28.32 14.7 -29 13 C-29.33 14.65 -29.66 16.3 -30 18 C-31.65 18 -33.3 18 -35 18 C-35 17.34 -35 16.68 -35 16 C-34.34 15.67 -33.68 15.34 -33 15 C-31.27512459 10.20867943 -30.79294545 6.07283639 -31 1 C-29.02 1 -27.04 1 -25 1 C-24.34 3.97 -23.68 6.94 -23 10 C-22.38125 9.071875 -21.7625 8.14375 -21.125 7.1875 C-19.75 5.125 -18.375 3.0625 -17 1 C-13.875 0.8125 -13.875 0.8125 -11 1 C-11.309375 1.845625 -11.61875 2.69125 -11.9375 3.5625 C-13.01538821 7.0497854 -13.56581304 10.38177535 -14 14 C-9.69499318 11.76749204 -7.25655774 9.13627619 -4.3125 5.3125 C-2.91901602 3.5068258 -1.49133995 1.72573523 0 0 Z " fill="#C16172" transform="translate(275,24)"/>
<path d="M0 0 C2.67697189 0.18520358 3.75019712 0.73922759 5.61230469 2.68310547 C6.12696289 3.40385254 6.64162109 4.12459961 7.171875 4.8671875 C7.75042236 5.66552002 8.32896973 6.46385254 8.92504883 7.28637695 C9.52728271 8.14062256 10.1295166 8.99486816 10.75 9.875 C11.99865863 11.6159136 13.24735635 13.35679916 14.49609375 15.09765625 C15.09663574 15.94215332 15.69717773 16.78665039 16.31591797 17.65673828 C17.73385656 19.62968328 19.17805749 21.57128262 20.66015625 23.49609375 C21.37042969 24.42550781 22.08070312 25.35492188 22.8125 26.3125 C23.41707031 27.09238281 24.02164063 27.87226562 24.64453125 28.67578125 C26.25783465 31.44210841 26.64874256 33.838683 27 37 C26.01 37 25.02 37 24 37 C23.484375 36.05253906 22.96875 35.10507812 22.4375 34.12890625 C19.60879917 29.17992483 16.29640614 24.58212245 13 19.9375 C11.77022988 18.19704082 10.54104813 16.45616572 9.3125 14.71484375 C8.73757812 13.90257324 8.16265625 13.09030273 7.5703125 12.25341797 C6.23569285 10.33822218 4.95143753 8.40343521 3.6875 6.44140625 C2.23051822 3.91463854 2.23051822 3.91463854 0 3 C-0.25072266 3.7019751 -0.50144531 4.4039502 -0.75976562 5.12719727 C-2.15217824 8.35249633 -3.88375731 11.04937754 -5.84375 13.96484375 C-6.60297381 15.10604713 -7.36208494 16.24732549 -8.12109375 17.38867188 C-9.3103643 19.16521531 -10.50183784 20.94022974 -11.69580078 22.71362305 C-12.85520076 24.43932507 -14.00605945 26.17049498 -15.15625 27.90234375 C-15.84525391 28.92835693 -16.53425781 29.95437012 -17.24414062 31.01147461 C-18.98030031 33.96647054 -19.93070547 36.76061648 -21 40 C-22.62652316 41.70586575 -24.29006566 43.3777546 -26 45 C-26.33 45.99 -26.66 46.98 -27 48 C-25.88625 47.505 -25.88625 47.505 -24.75 47 C-22 46 -22 46 -18 46 C-18 46.99 -18 47.98 -18 49 C-22.62 49 -27.24 49 -32 49 C-27.25 40.25 -27.25 40.25 -25 38 C-24.58105469 36.97261719 -24.16210938 35.94523437 -23.73046875 34.88671875 C-21.88087436 30.40576653 -19.16240478 26.707845 -16.3125 22.8125 C-15.23696026 21.31865854 -14.1627479 19.82386052 -13.08984375 18.328125 C-12.56503418 17.59787109 -12.04022461 16.86761719 -11.49951172 16.11523438 C-8.73747323 12.21906025 -6.13169006 8.22307737 -3.5234375 4.22265625 C-2 2 -2 2 0 0 Z " fill="#DE9397" transform="translate(46,15)"/>
<path d="M0 0 C2.64 0 5.28 0 8 0 C8 0.99 8 1.98 8 3 C8.99 2.34 9.98 1.68 11 1 C13.91796875 0.8046875 13.91796875 0.8046875 17.1875 0.875 C18.81751953 0.90207031 18.81751953 0.90207031 20.48046875 0.9296875 C21.72763672 0.96449219 21.72763672 0.96449219 23 1 C23 3.31 23 5.62 23 8 C24.65 8 26.3 8 28 8 C28.66 5.69 29.32 3.38 30 1 C31.32 1 32.64 1 34 1 C34.66 3.97 35.32 6.94 36 10 C35.195625 9.979375 34.39125 9.95875 33.5625 9.9375 C31.06645115 9.70366379 31.06645115 9.70366379 30 11 C26.89186744 11.07228215 23.79573128 10.99614587 20.6875 10.9375 C18.081172 10.68866942 18.081172 10.68866942 17 12 C15.00041636 12.04080783 12.99954746 12.04254356 11 12 C10.67 11.01 10.34 10.02 10 9 C9.34 9 8.68 9 8 9 C8 9.66 8 10.32 8 11 C5.36 10.67 2.72 10.34 0 10 C0 6.7 0 3.4 0 0 Z " fill="#485E96" transform="translate(175,55)"/>
<path d="M0 0 C0.99 0.33 1.98 0.66 3 1 C3.33 4.63 3.66 8.26 4 12 C5.70509 7.73727501 6.4721307 4.48688907 7 0 C9.64 0 12.28 0 15 0 C15 0.66 15 1.32 15 2 C14.34 2 13.68 2 13 2 C12.01 6.29 11.02 10.58 10 15 C11.65 14.67 13.3 14.34 15 14 C15.99 14 16.98 14 18 14 C17.01 15.485 17.01 15.485 16 17 C13.46875 17.328125 13.46875 17.328125 10.5 17.25 C9.03046875 17.22679687 9.03046875 17.22679687 7.53125 17.203125 C5 17 5 17 3 16 C3 16.66 3 17.32 3 18 C7.29 18 11.58 18 16 18 C16 18.33 16 18.66 16 19 C9.12631267 19.74464946 2.83079148 20.18225237 -4 19 C-5 16 -5 16 -4 13 C-5.32 13.33 -6.64 13.66 -8 14 C-8.33 15.32 -8.66 16.64 -9 18 C-10.65 18 -12.3 18 -14 18 C-14 16 -14 16 -11.80078125 13.73828125 C-10.87652344 12.83464844 -9.95226562 11.93101563 -9 11 C-7.37218005 9.08232976 -5.76747267 7.14477957 -4.1875 5.1875 C-3.39730469 4.21167969 -2.60710937 3.23585938 -1.79296875 2.23046875 C-1.20128906 1.49441406 -0.60960938 0.75835938 0 0 Z " fill="#DE7F85" transform="translate(113,24)"/>
<path d="M0 0 C0.33 0.66 0.66 1.32 1 2 C10.57 2 20.14 2 30 2 C30 2.66 30 3.32 30 4 C30.99 4 31.98 4 33 4 C32.505 2.02 32.505 2.02 32 0 C34.5 2.3125 34.5 2.3125 37 5 C37 5.99 37 6.98 37 8 C35.68 7.01 34.36 6.02 33 5 C33 6.98 33 8.96 33 11 C29.93753253 12.78409802 27.77920727 13.22880021 24.25 13.125 C23.45078125 13.10695313 22.6515625 13.08890625 21.828125 13.0703125 C21.22484375 13.04710937 20.6215625 13.02390625 20 13 C19.67 11.35 19.34 9.7 19 8 C16.03 8 13.06 8 10 8 C10 8.99 10 9.98 10 11 C13.465 10.505 13.465 10.505 17 10 C17 10.66 17 11.32 17 12 C14.59454362 13.20272819 13.05003047 13.10071472 10.375 13.0625 C9.14910156 13.04896484 9.14910156 13.04896484 7.8984375 13.03515625 C6.95871094 13.01775391 6.95871094 13.01775391 6 13 C5.3125 10.75 5.3125 10.75 5 8 C6.4375 5.6875 6.4375 5.6875 8 4 C5.36 4 2.72 4 0 4 C0 2.68 0 1.36 0 0 Z " fill="#B86E7B" transform="translate(40,48)"/>
<path d="M0 0 C4.27081914 -0.02897435 8.54161309 -0.04678996 12.8125 -0.0625 C14.63491211 -0.07506836 14.63491211 -0.07506836 16.49414062 -0.08789062 C18.23920898 -0.09272461 18.23920898 -0.09272461 20.01953125 -0.09765625 C21.09307861 -0.10289307 22.16662598 -0.10812988 23.27270508 -0.11352539 C26 0 26 0 29 1 C28.67 1.99 28.34 2.98 28 4 C27.67 3.67 27.34 3.34 27 3 C25.48071962 2.92820036 23.95832518 2.91607993 22.4375 2.9375 C21.61121094 2.94652344 20.78492188 2.95554687 19.93359375 2.96484375 C18.97646484 2.98224609 18.97646484 2.98224609 18 3 C17.87625 4.010625 17.7525 5.02125 17.625 6.0625 C17.01914665 9.87937612 16.12806088 13.31500112 15 17 C14.67 17 14.34 17 14 17 C14.33 13.7 14.66 10.4 15 7 C13.02 7.33 11.04 7.66 9 8 C8.67 11.63 8.34 15.26 8 19 C5.36 19 2.72 19 0 19 C0 18.34 0 17.68 0 17 C0.66 17 1.32 17 2 17 C2.33 13.7 2.66 10.4 3 7 C2.01 7 1.02 7 0 7 C0 4.69 0 2.38 0 0 Z " fill="#FBAAAB" transform="translate(301,23)"/>
<path d="M0 0 C1.98 0 3.96 0 6 0 C6 2.31 6 4.62 6 7 C9.63 7 13.26 7 17 7 C17 6.34 17 5.68 17 5 C14.69 5.33 12.38 5.66 10 6 C10 5.01 10 4.02 10 3 C12.97 3 15.94 3 19 3 C19.33 4.32 19.66 5.64 20 7 C21.41655793 7.0272415 22.83327045 7.04650467 24.25 7.0625 C25.03890625 7.07410156 25.8278125 7.08570313 26.640625 7.09765625 C28.90691002 7.00385306 30.8288895 6.63241063 33 6 C33 4.02 33 2.04 33 0 C36.83146596 1.56096761 39.28148054 3.91411305 42 7 C42.495 8.98 42.495 8.98 43 11 C29.8 11 16.6 11 3 11 C3.33 9.35 3.66 7.7 4 6 C2.68 5.67 1.36 5.34 0 5 C0 3.35 0 1.7 0 0 Z " fill="#D7A4A9" transform="translate(40,53)"/>
<path d="M0 0 C3.3 0 6.6 0 10 0 C9.09276387 4.68738665 8.0452733 9.34193744 7 14 C8.65 14 10.3 14 12 14 C12 15.98 12 17.96 12 20 C9.13366205 21.43316898 6.62764499 21.13200361 3.4375 21.125 C1.67212891 21.12886719 1.67212891 21.12886719 -0.12890625 21.1328125 C-3 21 -3 21 -4 20 C-4.50562368 15.82860467 -3.25853383 12.85195185 -1.734375 9.0703125 C-0.66718803 6.06175349 -0.33002647 3.16825408 0 0 Z " fill="#F2B4B7" transform="translate(286,23)"/>
<path d="M0 0 C0.66 0 1.32 0 2 0 C2.20086443 3.71599191 2.1519437 4.77208445 0 8 C0.99 8 1.98 8 3 8 C3.268125 7.4225 3.53625 6.845 3.8125 6.25 C6.11764706 1.88235294 6.11764706 1.88235294 8 0 C11.125 -0.3125 11.125 -0.3125 14 0 C15.55606751 1.55606751 15.12970769 3.05957371 15.1328125 5.21875 C15.13474609 6.49298828 15.13474609 6.49298828 15.13671875 7.79296875 C15.13285156 8.68628906 15.12898438 9.57960938 15.125 10.5 C15.13080078 11.83998047 15.13080078 11.83998047 15.13671875 13.20703125 C15.13542969 14.05652344 15.13414062 14.90601563 15.1328125 15.78125 C15.13168457 16.56564453 15.13055664 17.35003906 15.12939453 18.15820312 C15 20 15 20 14 21 C12.61839885 21.0927833 11.23211962 21.11747043 9.84741211 21.11352539 C8.96657455 21.11344986 8.085737 21.11337433 7.1782074 21.11329651 C6.22092239 21.10813522 5.26363739 21.10297394 4.27734375 21.09765625 C3.30213272 21.0962413 2.32692169 21.09482635 1.32215881 21.09336853 C-1.80609143 21.08775133 -4.93427123 21.07519593 -8.0625 21.0625 C-10.17773334 21.05748722 -12.29296781 21.05292393 -14.40820312 21.04882812 C-19.60549296 21.03777631 -24.80274145 21.02102146 -30 21 C-30 20.67 -30 20.34 -30 20 C-26.37 20 -22.74 20 -19 20 C-19 17.69 -19 15.38 -19 13 C-18.34 13.33 -17.68 13.66 -17 14 C-16.67 15.32 -16.34 16.64 -16 18 C-12.04 18.33 -8.08 18.66 -4 19 C-3.67 18.34 -3.34 17.68 -3 17 C-3 17.66 -3 18.32 -3 19 C-1.02 19 0.96 19 3 19 C3 18.01 3 17.02 3 16 C3.99 16 4.98 16 6 16 C6 16.99 6 17.98 6 19 C8.31 19 10.62 19 13 19 C13 13.06 13 7.12 13 1 C9.04502336 4.95497664 5.4484222 8.93602566 1.8671875 13.20703125 C0 15 0 15 -3 15 C-3.36263859 9.1977825 -2.25684543 5.36000789 0 0 Z " fill="#FEDEDE" transform="translate(264,23)"/>
<path d="M0 0 C2.40450178 2.40450178 2.29609139 3.08233942 2.3125 6.375 C2.23854346 9.25468281 2.08726492 10.82087727 0.8125 13.4375 C-2.1269443 15.97150371 -4.78284977 16.88408093 -8.625 17.25 C-11 17 -11 17 -14 15 C-14.97297729 11.2287702 -14.83391509 7.50593458 -12.93359375 4.07421875 C-9.01028991 -0.40497555 -5.76694613 -0.76892615 0 0 Z " fill="#2D4A90" transform="translate(164,25)"/>
<path d="M0 0 C0.66 0 1.32 0 2 0 C2 5.61 2 11.22 2 17 C-0.31 17 -2.62 17 -5 17 C-4.67 15.68 -4.34 14.36 -4 13 C-5.65 13 -7.3 13 -9 13 C-9 14.32 -9 15.64 -9 17 C-16.59 17 -24.18 17 -32 17 C-31.67 16.34 -31.34 15.68 -31 15 C-29.35 15.33 -27.7 15.66 -26 16 C-25.67 13.69 -25.34 11.38 -25 9 C-23.02 9 -21.04 9 -19 9 C-19.66 10.98 -20.32 12.96 -21 15 C-19.68 15.33 -18.36 15.66 -17 16 C-16.87625 14.80375 -16.7525 13.6075 -16.625 12.375 C-16.17674946 8.72403187 -15.29553163 5.45475101 -14 2 C-12.46833832 6.08443115 -13.36918348 9.79455657 -14 14 C-9.9408321 12.44878481 -7.96336874 9.79818814 -5.3125 6.4375 C-4.52488281 5.44621094 -3.73726562 4.45492188 -2.92578125 3.43359375 C-2.29027344 2.63050781 -1.65476563 1.82742187 -1 1 C-0.67 0.67 -0.34 0.34 0 0 Z " fill="#9C506E" transform="translate(220,25)"/>
<path d="M0 0 C0.99 0 1.98 0 3 0 C3.99 1.98 4.98 3.96 6 6 C6.33 4.02 6.66 2.04 7 0 C7.99 0 8.98 0 10 0 C10 0.66 10 1.32 10 2 C11.65 1.34 13.3 0.68 15 0 C15 2.31 15 4.62 15 7 C15.66 7.33 16.32 7.66 17 8 C17.33 5.69 17.66 3.38 18 1 C19.65 0.67 21.3 0.34 23 0 C23.66 1.98 24.32 3.96 25 6 C26.32 6 27.64 6 29 6 C29 7.65 29 9.3 29 11 C25.28111761 10.49287967 22.26545761 9.88391785 19 8 C19 8.66 19 9.32 19 10 C16.60385874 10.05425226 14.20896147 10.09379027 11.8125 10.125 C10.80219727 10.15013672 10.80219727 10.15013672 9.77148438 10.17578125 C5.71192193 10.21538674 2.65001185 9.80020002 -1 8 C-1 8.66 -1 9.32 -1 10 C-1.66 10 -2.32 10 -3 10 C-2.49287967 6.28111761 -1.88391785 3.26545761 0 0 Z " fill="#324D90" transform="translate(121,56)"/>
<path d="M0 0 C1.23556641 0.01740234 1.23556641 0.01740234 2.49609375 0.03515625 C3.32238281 0.04417969 4.14867188 0.05320312 5 0.0625 C5.63808594 0.07410156 6.27617187 0.08570312 6.93359375 0.09765625 C6.79210386 1.70221185 6.64523689 3.30629392 6.49609375 4.91015625 C6.41488281 5.80347656 6.33367187 6.69679688 6.25 7.6171875 C5.93359375 10.09765625 5.93359375 10.09765625 4.93359375 13.09765625 C6.25359375 13.09765625 7.57359375 13.09765625 8.93359375 13.09765625 C8.83046875 12.39640625 8.72734375 11.69515625 8.62109375 10.97265625 C9.07308528 6.81433421 11.02838712 5.00286288 13.93359375 2.09765625 C17.4914963 0.38004812 22.05787927 1.03306101 25.93359375 1.09765625 C25.93359375 1.42765625 25.93359375 1.75765625 25.93359375 2.09765625 C23.62359375 2.09765625 21.31359375 2.09765625 18.93359375 2.09765625 C18.93359375 2.75765625 18.93359375 3.41765625 18.93359375 4.09765625 C17.21875 5.2109375 17.21875 5.2109375 14.99609375 6.41015625 C11.63706327 8.2472213 11.63706327 8.2472213 10.24609375 11.66015625 C10.14296875 12.46453125 10.03984375 13.26890625 9.93359375 14.09765625 C7.68359375 16.41015625 7.68359375 16.41015625 4.93359375 18.09765625 C3.28359375 18.09765625 1.63359375 18.09765625 -0.06640625 18.09765625 C1.25359375 13.47765625 2.57359375 8.85765625 3.93359375 4.09765625 C4.59359375 4.09765625 5.25359375 4.09765625 5.93359375 4.09765625 C5.93359375 3.43765625 5.93359375 2.77765625 5.93359375 2.09765625 C3.29359375 2.09765625 0.65359375 2.09765625 -2.06640625 2.09765625 C-2.00453125 3.12890625 -1.94265625 4.16015625 -1.87890625 5.22265625 C-2.0777622 9.33234598 -3.01108428 11.58648121 -5.06640625 15.09765625 C-5.39640625 15.09765625 -5.72640625 15.09765625 -6.06640625 15.09765625 C-6.39640625 11.13765625 -6.72640625 7.17765625 -7.06640625 3.09765625 C-11.13556098 4.45404116 -12.69553154 7.26106385 -15.12890625 10.59765625 C-19.82018459 16.97454542 -19.82018459 16.97454542 -22.06640625 18.09765625 C-22.06640625 17.10765625 -22.06640625 16.11765625 -22.06640625 15.09765625 C-21.40640625 15.09765625 -20.74640625 15.09765625 -20.06640625 15.09765625 C-19.79828125 14.19015625 -19.53015625 13.28265625 -19.25390625 12.34765625 C-18.16508993 9.36773791 -17.20249524 7.41175266 -15.06640625 5.09765625 C-14.40640625 5.09765625 -13.74640625 5.09765625 -13.06640625 5.09765625 C-12.73640625 3.77765625 -12.40640625 2.45765625 -12.06640625 1.09765625 C-9.75640625 1.09765625 -7.44640625 1.09765625 -5.06640625 1.09765625 C-5.06640625 3.07765625 -5.06640625 5.05765625 -5.06640625 7.09765625 C-4.40640625 7.09765625 -3.74640625 7.09765625 -3.06640625 7.09765625 C-3.08703125 6.12828125 -3.10765625 5.15890625 -3.12890625 4.16015625 C-3.04694378 0.14399545 -3.04694378 0.14399545 0 0 Z " fill="#FCD4D5" transform="translate(122.06640625,21.90234375)"/>
<path d="M0 0 C4.29 0 8.58 0 13 0 C13 0.99 13 1.98 13 3 C13.66 3 14.32 3 15 3 C15 2.01 15 1.02 15 0 C15.99 0 16.98 0 18 0 C18 3.3 18 6.6 18 10 C17.01 10 16.02 10 15 10 C15 8.68 15 7.36 15 6 C14.01 6.495 14.01 6.495 13 7 C12.67 7.99 12.34 8.98 12 10 C10.68 10 9.36 10 8 10 C6.1746875 10.2784375 6.1746875 10.2784375 4.3125 10.5625 C2.6728125 10.7790625 2.6728125 10.7790625 1 11 C0 10 0 10 -0.09765625 7.71484375 C-0.06510417 5.14322917 -0.03255208 2.57161458 0 0 Z " fill="#6A6291" transform="translate(99,56)"/>
<path d="M0 0 C1.81242052 -0.02687279 3.62495233 -0.04633715 5.4375 -0.0625 C6.44683594 -0.07410156 7.45617187 -0.08570312 8.49609375 -0.09765625 C11 0 11 0 12 1 C12.1875 3.9375 12.1875 3.9375 12 7 C11.34 7.66 10.68 8.32 10 9 C9.83322718 12.58343976 9.83322718 12.58343976 10 16 C8.68 16 7.36 16 6 16 C5.01 14.02 4.02 12.04 3 10 C2.67 11.98 2.34 13.96 2 16 C0.35 16 -1.3 16 -3 16 C-2.7834375 15.34773438 -2.566875 14.69546875 -2.34375 14.0234375 C-0.81497692 9.22478868 0.40269324 5.10078102 0 0 Z " fill="#1B4995" transform="translate(228,25)"/>
<path d="M0 0 C0.99 0 1.98 0 3 0 C3 3.3 3 6.6 3 10 C4.32 10.33 5.64 10.66 7 11 C8 12 8 12 8.0625 15.0625 C8.041875 16.031875 8.02125 17.00125 8 18 C2.61411629 19.12727799 2.61411629 19.12727799 -0.26171875 18.53125 C-3.59783821 17.88401427 -6.72869191 17.9050512 -10.125 17.9375 C-11.34445312 17.94652344 -12.56390625 17.95554687 -13.8203125 17.96484375 C-14.86960937 17.97644531 -15.91890625 17.98804687 -17 18 C-21 18 -25 18 -29 18 C-29 17.34 -29 16.68 -29 16 C-26.36 16 -23.72 16 -21 16 C-21.020625 14.741875 -21.04125 13.48375 -21.0625 12.1875 C-21.10886083 9.35948913 -20.91692961 7.75078884 -20 5 C-18.02 4.67 -16.04 4.34 -14 4 C-14.33 7.3 -14.66 10.6 -15 14 C-15.66 14 -16.32 14 -17 14 C-16.67 14.66 -16.34 15.32 -16 16 C-14.2709226 16.02725341 -12.54171824 16.04650987 -10.8125 16.0625 C-9.36810547 16.07990234 -9.36810547 16.07990234 -7.89453125 16.09765625 C-5.01995558 16.08474169 -5.01995558 16.08474169 -2.34375 15.4375 C0.86148149 14.83919012 3.01808369 15.82110285 6 17 C5.505 14.525 5.505 14.525 5 12 C4.01 11.67 3.02 11.34 2 11 C1.34 7.37 0.68 3.74 0 0 Z " fill="#F6D9D9" transform="translate(330,26)"/>
<path d="M0 0 C3.63 0 7.26 0 11 0 C11 2.97 11 5.94 11 9 C13.31 9 15.62 9 18 9 C18 9.66 18 10.32 18 11 C10.74 11 3.48 11 -4 11 C-4 10.34 -4 9.68 -4 9 C-4.66 8.67 -5.32 8.34 -6 8 C-3.525 8.495 -3.525 8.495 -1 9 C-1.33 7.02 -1.66 5.04 -2 3 C-1.34 3 -0.68 3 0 3 C0 2.01 0 1.02 0 0 Z " fill="#D69CA1" transform="translate(212,56)"/>
<path d="M0 0 C0.66 0 1.32 0 2 0 C1.52045026 5.09888596 -1.05872603 8.38783619 -3.9375 12.4375 C-7.10755949 16.90786678 -9.3474293 20.7209547 -11 26 C-12.62652316 27.70586575 -14.29006566 29.3777546 -16 31 C-16.495 32.485 -16.495 32.485 -17 34 C-15.88625 33.505 -15.88625 33.505 -14.75 33 C-12 32 -12 32 -8 32 C-8 32.99 -8 33.98 -8 35 C-12.62 35 -17.24 35 -22 35 C-17.25 26.25 -17.25 26.25 -15 24 C-14.58878906 22.98808594 -14.17757813 21.97617187 -13.75390625 20.93359375 C-11.80089882 16.19899308 -8.90520696 12.21018147 -5.9375 8.0625 C-5.39544922 7.28326172 -4.85339844 6.50402344 -4.29492188 5.70117188 C-3.77349609 4.96576172 -3.25207031 4.23035156 -2.71484375 3.47265625 C-2.24167725 2.80500244 -1.76851074 2.13734863 -1.28100586 1.44946289 C-0.85827393 0.97114014 -0.43554199 0.49281738 0 0 Z " fill="#DF9297" transform="translate(36,29)"/>
<path d="M0 0 C1.32 0 2.64 0 4 0 C4 2.31 4 4.62 4 7 C5.65 7 7.3 7 9 7 C9.66 4.69 10.32 2.38 11 0 C12.32 0 13.64 0 15 0 C15.66 2.97 16.32 5.94 17 9 C16.195625 8.979375 15.39125 8.95875 14.5625 8.9375 C12.06645115 8.70366379 12.06645115 8.70366379 11 10 C9.35659133 10.09854655 7.7088539 10.12972411 6.0625 10.125 C5.16660156 10.12757812 4.27070313 10.13015625 3.34765625 10.1328125 C1 10 1 10 -1 9 C-1 7.35 -1 5.7 -1 4 C-2.32 4 -3.64 4 -5 4 C-5 4.66 -5 5.32 -5 6 C-4.34 6 -3.68 6 -3 6 C-3 6.66 -3 7.32 -3 8 C-4.32 7.67 -5.64 7.34 -7 7 C-7 5.35 -7 3.7 -7 2 C-4.03 2.495 -4.03 2.495 -1 3 C-0.67 2.01 -0.34 1.02 0 0 Z " fill="#6C5786" transform="translate(194,56)"/>
<path d="M0 0 C2.31 0 4.62 0 7 0 C6.01 0.495 6.01 0.495 5 1 C4.59270772 3.32156597 4.25561323 5.6568787 4 8 C5.65 7.67 7.3 7.34 9 7 C9 4.69 9 2.38 9 0 C11.64 0 14.28 0 17 0 C16.3503125 0.8971875 16.3503125 0.8971875 15.6875 1.8125 C13.30009815 6.32203683 12.2184862 11.06556298 11 16 C9.35 16 7.7 16 6 16 C6.66 14.02 7.32 12.04 8 10 C6.35 9.67 4.7 9.34 3 9 C2.67 11.31 2.34 13.62 2 16 C0.35 16 -1.3 16 -3 16 C-2.7834375 15.26394531 -2.566875 14.52789062 -2.34375 13.76953125 C-2.0653125 12.79371094 -1.786875 11.81789063 -1.5 10.8125 C-1.2215625 9.84957031 -0.943125 8.88664062 -0.65625 7.89453125 C-0.03322392 5.14654124 0.12302812 2.80401584 0 0 Z " fill="#144A98" transform="translate(192,25)"/>
<path d="M0 0 C2.5 2.3125 2.5 2.3125 5 5 C5 5.99 5 6.98 5 8 C3.68 7.01 2.36 6.02 1 5 C1 6.98 1 8.96 1 11 C-2.06246747 12.78409802 -4.22079273 13.22880021 -7.75 13.125 C-8.54921875 13.10695313 -9.3484375 13.08890625 -10.171875 13.0703125 C-10.77515625 13.04710937 -11.3784375 13.02390625 -12 13 C-12.75 10.75 -12.75 10.75 -13 8 C-11.6875 5.6875 -11.6875 5.6875 -9 4 C-5.63996194 3.66872864 -2.36453072 3.76884903 1 4 C0.67 2.68 0.34 1.36 0 0 Z " fill="#75648D" transform="translate(72,48)"/>
<path d="M0 0 C0.33 0 0.66 0 1 0 C1.33 3.96 1.66 7.92 2 12 C2.99 8.04 3.98 4.08 5 0 C5.66 0.33 6.32 0.66 7 1 C6.40380045 5.86896303 5.43023178 10.32790951 4 15 C5.32 15.33 6.64 15.66 8 16 C8 14.02 8 12.04 8 10 C8.66 9.67 9.32 9.34 10 9 C10.66 11.31 11.32 13.62 12 16 C13.65 15.67 15.3 15.34 17 15 C16.67 15.99 16.34 16.98 16 18 C8.34916042 19.24911667 0.72559014 19.09053426 -7 19 C-7 18.34 -7 17.68 -7 17 C-4.69 17 -2.38 17 0 17 C0 11.39 0 5.78 0 0 Z " fill="#EEABAD" transform="translate(222,25)"/>
<path d="M0 0 C1.98 0 3.96 0 6 0 C6.33730842 1.43657245 6.66969591 2.87430093 7 4.3125 C7.185625 5.11300781 7.37125 5.91351563 7.5625 6.73828125 C8.16513856 9.85370735 8.34379201 11.45305816 6.625 14.1875 C6.08875 14.785625 5.5525 15.38375 5 16 C4.34 16 3.68 16 3 16 C2.67 14.68 2.34 13.36 2 12 C1.67 13.65 1.34 15.3 1 17 C-0.65 17 -2.3 17 -4 17 C-4 16.34 -4 15.68 -4 15 C-3.34 14.67 -2.68 14.34 -2 14 C-0.27512459 9.20867943 0.20705455 5.07283639 0 0 Z " fill="#0E4A9B" transform="translate(244,25)"/>
<path d="M0 0 C1.876875 -0.04125 3.75375 -0.0825 5.6875 -0.125 C6.74324219 -0.14820312 7.79898438 -0.17140625 8.88671875 -0.1953125 C12.02251859 0.00141271 14.17645373 0.66942346 17 2 C16.28547412 6.76350585 15.20465156 11.34201396 14 16 C13 13 13 13 13 9 C12.34 9.66 11.68 10.32 11 11 C9.01178687 11.39764263 7.01055661 11.73775349 5 12 C4.67 13.98 4.34 15.96 4 18 C1.69 18 -0.62 18 -3 18 C-2.01 12.06 -1.02 6.12 0 0 Z M1 1 C0.95101562 1.56847656 0.90203125 2.13695312 0.8515625 2.72265625 C0.36856919 7.71081129 -0.47638163 12.22599578 -2 17 C-0.68 17 0.64 17 2 17 C2.185625 16.05125 2.37125 15.1025 2.5625 14.125 C3.036875 13.09375 3.51125 12.0625 4 11 C7.5625 9.6875 7.5625 9.6875 11 9 C12.34404775 7.88163776 12.34404775 7.88163776 12.125 5 C12.34404775 2.11836224 12.34404775 2.11836224 11 1 C9.31391034 0.92794489 7.62499341 0.91613932 5.9375 0.9375 C5.01839844 0.94652344 4.09929687 0.95554687 3.15234375 0.96484375 C2.44207031 0.97644531 1.73179687 0.98804687 1 1 Z " fill="#D9747E" transform="translate(176,24)"/>
<path d="M0 0 C0.66 0 1.32 0 2 0 C2 5.28 2 10.56 2 16 C0.68 16 -0.64 16 -2 16 C-2 14.35 -2 12.7 -2 11 C-3.65 11 -5.3 11 -7 11 C-7.33 12.98 -7.66 14.96 -8 17 C-9.65 17 -11.3 17 -13 17 C-13 15 -13 15 -11 13 C-10.55011719 12.57332031 -10.10023437 12.14664063 -9.63671875 11.70703125 C-6.75022438 8.69653473 -4.29813287 5.32355835 -1.76953125 2.01171875 C-1.18558594 1.34785156 -0.60164063 0.68398438 0 0 Z " fill="#6A4576" transform="translate(112,25)"/>
<path d="M0 0 C4.62 0 9.24 0 14 0 C13.34 1.32 12.68 2.64 12 4 C12 3.34 12 2.68 12 2 C11.01 2 10.02 2 9 2 C7.9458482 5.16245541 7.68724328 7.86948218 7.4375 11.1875 C7.35371094 12.27417969 7.26992188 13.36085938 7.18359375 14.48046875 C7.12300781 15.31191406 7.06242187 16.14335938 7 17 C4.36 17 1.72 17 -1 17 C-1 16.34 -1 15.68 -1 15 C-0.34 15 0.32 15 1 15 C1 14.01 1 13.02 1 12 C1.66 12 2.32 12 3 12 C3.33 8.7 3.66 5.4 4 2 C2.02 2.99 2.02 2.99 0 4 C0 2.68 0 1.36 0 0 Z " fill="#3A4E8F" transform="translate(302,25)"/>
<path d="M0 0 C2.31 0 4.62 0 7 0 C6.01 0.495 6.01 0.495 5 1 C5.33 4.3 5.66 7.6 6 11 C4.1746875 10.9690625 4.1746875 10.9690625 2.3125 10.9375 C-0.91977322 10.93175884 -3.84934741 11.21233685 -7 12 C-6.52570343 7.73133091 -3.96478822 5.89066852 -1 3 C-0.67 2.01 -0.34 1.02 0 0 Z " fill="#7F5B7F" transform="translate(26,51)"/>
<path d="M0 0 C0.66 0.33 1.32 0.66 2 1 C2.33 2.32 2.66 3.64 3 5 C6.96 5.33 10.92 5.66 15 6 C15.33 5.34 15.66 4.68 16 4 C16 4.66 16 5.32 16 6 C17.98 6 19.96 6 22 6 C22 5.01 22 4.02 22 3 C22.99 3 23.98 3 25 3 C25 3.99 25 4.98 25 6 C27.31 6 29.62 6 32 6 C32 6.66 32 7.32 32 8 C17.81 8 3.62 8 -11 8 C-11 7.67 -11 7.34 -11 7 C-7.37 7 -3.74 7 0 7 C0 4.69 0 2.38 0 0 Z " fill="#F0C8C8" transform="translate(245,36)"/>
<path d="M0 0 C1.23556641 0.01740234 1.23556641 0.01740234 2.49609375 0.03515625 C3.32238281 0.04417969 4.14867188 0.05320312 5 0.0625 C5.63808594 0.07410156 6.27617187 0.08570312 6.93359375 0.09765625 C6.93359375 0.42765625 6.93359375 0.75765625 6.93359375 1.09765625 C4.29359375 1.42765625 1.65359375 1.75765625 -1.06640625 2.09765625 C-1.18757813 2.7009375 -1.30875 3.30421875 -1.43359375 3.92578125 C-1.60117188 4.725 -1.76875 5.52421875 -1.94140625 6.34765625 C-2.10382813 7.1365625 -2.26625 7.92546875 -2.43359375 8.73828125 C-3.057907 11.06596769 -3.91479167 12.98797577 -5.06640625 15.09765625 C-5.39640625 15.09765625 -5.72640625 15.09765625 -6.06640625 15.09765625 C-6.39640625 11.13765625 -6.72640625 7.17765625 -7.06640625 3.09765625 C-11.13556098 4.45404116 -12.69553154 7.26106385 -15.12890625 10.59765625 C-19.82018459 16.97454542 -19.82018459 16.97454542 -22.06640625 18.09765625 C-22.06640625 17.10765625 -22.06640625 16.11765625 -22.06640625 15.09765625 C-21.40640625 15.09765625 -20.74640625 15.09765625 -20.06640625 15.09765625 C-19.79828125 14.19015625 -19.53015625 13.28265625 -19.25390625 12.34765625 C-18.16508993 9.36773791 -17.20249524 7.41175266 -15.06640625 5.09765625 C-14.40640625 5.09765625 -13.74640625 5.09765625 -13.06640625 5.09765625 C-12.73640625 3.77765625 -12.40640625 2.45765625 -12.06640625 1.09765625 C-9.75640625 1.09765625 -7.44640625 1.09765625 -5.06640625 1.09765625 C-5.06640625 3.07765625 -5.06640625 5.05765625 -5.06640625 7.09765625 C-4.40640625 7.09765625 -3.74640625 7.09765625 -3.06640625 7.09765625 C-3.08703125 6.12828125 -3.10765625 5.15890625 -3.12890625 4.16015625 C-3.04694378 0.14399545 -3.04694378 0.14399545 0 0 Z " fill="#FEE3E3" transform="translate(122.06640625,21.90234375)"/>
<path d="M0 0 C1.37478516 0.01740234 1.37478516 0.01740234 2.77734375 0.03515625 C3.69644531 0.04417969 4.61554688 0.05320312 5.5625 0.0625 C6.27277344 0.07410156 6.98304688 0.08570312 7.71484375 0.09765625 C7.71484375 0.42765625 7.71484375 0.75765625 7.71484375 1.09765625 C4.74484375 1.75765625 1.77484375 2.41765625 -1.28515625 3.09765625 C-1.47851562 3.95230469 -1.671875 4.80695312 -1.87109375 5.6875 C-2.13148438 6.79222656 -2.391875 7.89695312 -2.66015625 9.03515625 C-2.91539062 10.13730469 -3.170625 11.23945312 -3.43359375 12.375 C-3.71460938 13.27347656 -3.995625 14.17195313 -4.28515625 15.09765625 C-5.27515625 15.59265625 -5.27515625 15.59265625 -6.28515625 16.09765625 C-6.28515625 11.80765625 -6.28515625 7.51765625 -6.28515625 3.09765625 C-10.19904804 5.44599132 -11.93219667 6.49982235 -14.59765625 9.78515625 C-15.10941406 10.40777344 -15.62117187 11.03039063 -16.1484375 11.671875 C-16.52355469 12.14238281 -16.89867187 12.61289062 -17.28515625 13.09765625 C-17.61515625 11.77765625 -17.94515625 10.45765625 -18.28515625 9.09765625 C-17.29515625 8.43765625 -16.30515625 7.77765625 -15.28515625 7.09765625 C-14.95515625 6.10765625 -14.62515625 5.11765625 -14.28515625 4.09765625 C-13.62515625 4.09765625 -12.96515625 4.09765625 -12.28515625 4.09765625 C-12.28515625 3.10765625 -12.28515625 2.11765625 -12.28515625 1.09765625 C-10.28560879 1.05511269 -8.28473989 1.05684842 -6.28515625 1.09765625 C-5.28515625 2.09765625 -5.28515625 2.09765625 -5.22265625 5.16015625 C-5.24328125 6.12953125 -5.26390625 7.09890625 -5.28515625 8.09765625 C-4.62515625 8.09765625 -3.96515625 8.09765625 -3.28515625 8.09765625 C-3.30578125 6.96328125 -3.32640625 5.82890625 -3.34765625 4.66015625 C-3.26834953 0.13967306 -3.26834953 0.13967306 0 0 Z " fill="#FEE1E1" transform="translate(229.28515625,21.90234375)"/>
<path d="M0 0 C0 1.65 0 3.3 0 5 C-0.66 5 -1.32 5 -2 5 C-2.33 4.01 -2.66 3.02 -3 2 C-5.44480079 2.18828772 -5.44480079 2.18828772 -8 3 C-10.66181082 6.2955753 -10.15640774 9.93339881 -10 14 C-8.35 14.33 -6.7 14.66 -5 15 C-5.66 15.66 -6.32 16.32 -7 17 C-9.9425963 16.69347955 -12.34542308 16.32728846 -15 15 C-15.29033956 11.61915708 -15.43930648 8.37154491 -15 5 C-10.25868463 -0.11562974 -6.576663 -0.10607521 0 0 Z " fill="#0F4A9A" transform="translate(149,25)"/>
<path d="M0 0 C3.83146596 1.56096761 6.28148054 3.91411305 9 7 C9.33 8.32 9.66 9.64 10 11 C5.71 11 1.42 11 -3 11 C-2.34 9.35 -1.68 7.7 -1 6 C-0.62406934 4.0075675 -0.28020455 2.0081326 0 0 Z " fill="#FDF9F9" transform="translate(73,53)"/>
<path d="M0 0 C1.53166168 4.08443115 0.63081652 7.79455657 0 12 C0.66 12.33 1.32 12.66 2 13 C1.67 13.66 1.34 14.32 1 15 C-5.27 15 -11.54 15 -18 15 C-17.67 14.34 -17.34 13.68 -17 13 C-15.35 13.33 -13.7 13.66 -12 14 C-11.67 11.69 -11.34 9.38 -11 7 C-9.02 7 -7.04 7 -5 7 C-5.66 8.98 -6.32 10.96 -7 13 C-5.68 13.33 -4.36 13.66 -3 14 C-2.87625 12.80375 -2.7525 11.6075 -2.625 10.375 C-2.17674946 6.72403187 -1.29553163 3.45475101 0 0 Z " fill="#DB7C84" transform="translate(206,27)"/>
<path d="M0 0 C4.77247406 -0.46788961 7.95087582 -0.68514232 12.0625 2 C14.66445438 6.02883259 14.39999378 8.28007343 14 13 C13.34 13 12.68 13 12 13 C11.67 14.65 11.34 16.3 11 18 C9.68 18.33 8.36 18.66 7 19 C7.495 18.360625 7.99 17.72125 8.5 17.0625 C10.48043342 13.0191151 10.47696867 9.43947758 10 5 C9.02089415 3.80304724 9.02089415 3.80304724 7.1875 3.8671875 C6.465625 3.86976562 5.74375 3.87234375 5 3.875 C4.278125 3.87242188 3.55625 3.86984375 2.8125 3.8671875 C0.97910585 3.80304724 0.97910585 3.80304724 0 5 C-1.66617115 5.04063832 -3.33388095 5.042721 -5 5 C-5 4.34 -5 3.68 -5 3 C-3.35 3 -1.7 3 0 3 C0 2.01 0 1.02 0 0 Z " fill="#F9B6B7" transform="translate(155,22)"/>
<path d="M0 0 C2.0625 0.4375 2.0625 0.4375 4 1 C3.50318324 9.01759463 3.50318324 9.01759463 1.6875 12.5625 C0 14 0 14 -4 14 C-4.31549088 8.7418187 -3.70016294 5.53627373 -1 1 C-0.67 0.67 -0.34 0.34 0 0 Z " fill="#E3757B" transform="translate(158,26)"/>
<path d="M0 0 C0.33 0 0.66 0 1 0 C1 2.31 1 4.62 1 7 C2.32 7.33 3.64 7.66 5 8 C5 9.65 5 11.3 5 13 C2.46653542 13.07037402 0.2762137 13.07102638 -2.1875 12.4375 C-4.08432232 11.77357897 -4.08432232 11.77357897 -6 13 C-7.87379605 13.07033769 -9.75001102 13.0843022 -11.625 13.0625 C-12.62789063 13.05347656 -13.63078125 13.04445313 -14.6640625 13.03515625 C-15.43492187 13.02355469 -16.20578125 13.01195312 -17 13 C-17.33 12.01 -17.66 11.02 -18 10 C-17.19175781 10.05800781 -16.38351562 10.11601563 -15.55078125 10.17578125 C-8.78149682 10.58336134 -8.78149682 10.58336134 -2.8125 7.8125 C-1.04267024 5.06621245 -0.27701777 3.23187393 0 0 Z " fill="#AE7289" transform="translate(331,30)"/>
<path d="M0 0 C2.4375 0.4375 2.4375 0.4375 4.4375 2.4375 C4.28035399 5.50184726 3.85396074 6.99019031 1.75 9.25 C-1.16274146 10.7457321 -3.33249584 10.65772756 -6.5625 10.4375 C-5.90800358 5.85602507 -5.11801692 0.87380777 0 0 Z " fill="#E5BBBE" transform="translate(51.5625,35.5625)"/>
<path d="M0 0 C2.31 0 4.62 0 7 0 C7.77842938 3.40562852 8.09978121 6.50765756 8 10 C5.36 10 2.72 10 0 10 C0 6.7 0 3.4 0 0 Z " fill="#595085" transform="translate(155,56)"/>
<path d="M0 0 C2.31 0 4.62 0 7 0 C6.01 0.495 6.01 0.495 5 1 C4.34486015 3.21378699 4.34486015 3.21378699 3.9375 5.8125 C3.38134034 8.92423629 2.76828384 11.92686463 2 15 C4.64 14.01 7.28 13.02 10 12 C9.67 13.32 9.34 14.64 9 16 C5.04 16 1.08 16 -3 16 C-2.21875 13.29817708 -1.4375 10.59635417 -0.65625 7.89453125 C-0.03322392 5.14654124 0.12302812 2.80401584 0 0 Z " fill="#124A9A" transform="translate(288,25)"/>
<path d="M0 0 C2.31 0 4.62 0 7 0 C6.01 0.495 6.01 0.495 5 1 C4.37330801 3.16467461 3.84572626 5.35864524 3.375 7.5625 C3.11460938 8.76003906 2.85421875 9.95757812 2.5859375 11.19140625 C2.39257812 12.11824219 2.19921875 13.04507813 2 14 C2.763125 13.835 3.52625 13.67 4.3125 13.5 C7 13 7 13 10 13 C9.01 14.485 9.01 14.485 8 16 C5.3984375 16.29296875 5.3984375 16.29296875 2.375 16.1875 C0.87066406 16.14689453 0.87066406 16.14689453 -0.6640625 16.10546875 C-1.43492188 16.07066406 -2.20578125 16.03585938 -3 16 C-2.7834375 15.26394531 -2.566875 14.52789062 -2.34375 13.76953125 C-2.0653125 12.79371094 -1.786875 11.81789063 -1.5 10.8125 C-1.2215625 9.84957031 -0.943125 8.88664062 -0.65625 7.89453125 C-0.03322392 5.14654124 0.12302812 2.80401584 0 0 Z " fill="#134A99" transform="translate(121,25)"/>
<path d="M0 0 C2.875 -0.125 2.875 -0.125 6 0 C8 2 8 2 8.1875 5.5625 C8 9 8 9 7 10 C4.66702567 10.04092937 2.33294775 10.04241723 0 10 C0 6.7 0 3.4 0 0 Z " fill="#334E91" transform="translate(213,56)"/>
<path d="M0 0 C1 3 1 3 -0.125 5.75 C-2.21195595 9.36739031 -4.51657484 12.64402005 -7 16 C-7.66 15.34 -8.32 14.68 -9 14 C-10.32 14.99 -11.64 15.98 -13 17 C-11.56643667 12.92957149 -9.59321998 9.73739812 -7.0625 6.25 C-6.02802734 4.80367187 -6.02802734 4.80367187 -4.97265625 3.328125 C-3 1 -3 1 0 0 Z " fill="#445491" transform="translate(23,45)"/>
<path d="M0 0 C1.98 0 3.96 0 6 0 C5.04416032 1.93873142 4.08523808 3.8759433 3.125 5.8125 C2.59132813 6.89144531 2.05765625 7.97039063 1.5078125 9.08203125 C0 12 0 12 -2 15 C-2.99 15 -3.98 15 -5 15 C-5.30017023 10.83513802 -4.45324946 8.34984273 -2.5 4.6875 C-2.0359375 3.80449219 -1.571875 2.92148437 -1.09375 2.01171875 C-0.7328125 1.34785156 -0.371875 0.68398438 0 0 Z " fill="#EBC4C6" transform="translate(41,36)"/>
<path d="M0 0 C0.33 0 0.66 0 1 0 C1.3125 2.6875 1.3125 2.6875 1 6 C-1.4375 8.6875 -1.4375 8.6875 -4 11 C-4.33 11.99 -4.66 12.98 -5 14 C-4.2575 13.67 -3.515 13.34 -2.75 13 C0 12 0 12 4 12 C4 12.99 4 13.98 4 15 C-0.62 15 -5.24 15 -10 15 C-7.0678248 9.47075535 -4.24886777 4.60294008 0 0 Z " fill="#F5D7D7" transform="translate(24,49)"/>
<path d="M0 0 C0.928125 0.0825 1.85625 0.165 2.8125 0.25 C2.1628125 1.1471875 2.1628125 1.1471875 1.5 2.0625 C-0.88740185 6.57203683 -1.9690138 11.31556298 -3.1875 16.25 C-4.8375 16.25 -6.4875 16.25 -8.1875 16.25 C-7.1975 12.95 -6.2075 9.65 -5.1875 6.25 C-6.1775 7.24 -7.1675 8.23 -8.1875 9.25 C-4.98850897 0.39125561 -4.98850897 0.39125561 0 0 Z " fill="#134A99" transform="translate(261.1875,24.75)"/>
<path d="M0 0 C1.1653125 0.00515625 2.330625 0.0103125 3.53125 0.015625 C4.6965625 0.01046875 5.861875 0.0053125 7.0625 0 C10.03125 0.265625 10.03125 0.265625 12.03125 2.265625 C9.72125 2.595625 7.41125 2.925625 5.03125 3.265625 C5.051875 4.235 5.0725 5.204375 5.09375 6.203125 C5.03125 9.265625 5.03125 9.265625 4.03125 10.265625 C2.36507885 10.30626332 0.69736905 10.308346 -0.96875 10.265625 C-0.63875 7.955625 -0.30875 5.645625 0.03125 3.265625 C-1.61875 2.935625 -3.26875 2.605625 -4.96875 2.265625 C-2.96875 0.265625 -2.96875 0.265625 0 0 Z " fill="#E79097" transform="translate(196.96875,22.734375)"/>
<path d="M0 0 C2.625 0.375 2.625 0.375 5 1 C5.33 3.64 5.66 6.28 6 9 C3.29120665 10.35439668 0.99066732 10.06501451 -2 10 C-2.1953125 3.9453125 -2.1953125 3.9453125 -2 2 C-1.34 1.34 -0.68 0.68 0 0 Z " fill="#FDE5E5" transform="translate(142,28)"/>
<path d="M0 0 C4.14960515 2.16911178 6.51045268 4.53255207 9.25 8.3125 C10.27867188 9.69888672 10.27867188 9.69888672 11.328125 11.11328125 C13.09612093 14.16596582 13.64992147 16.5146593 14 20 C13.01 20 12.02 20 11 20 C10.484375 19.05125 9.96875 18.1025 9.4375 17.125 C7.06758682 12.9327348 4.25032324 9.1033785 1.390625 5.234375 C0 3 0 3 0 0 Z " fill="#DE9B9F" transform="translate(59,32)"/>
<path d="M0 0 C1.98 0 3.96 0 6 0 C5.979375 1.093125 5.95875 2.18625 5.9375 3.3125 C5.81455548 6.94384191 5.81455548 6.94384191 7 10 C13.06264222 9.33735914 13.06264222 9.33735914 19 8 C19.33 8.99 19.66 9.98 20 11 C14.39 11 8.78 11 3 11 C3.33 9.35 3.66 7.7 4 6 C2.68 5.67 1.36 5.34 0 5 C0 3.35 0 1.7 0 0 Z " fill="#F2CFCF" transform="translate(40,53)"/>
<path d="M0 0 C0.66 0 1.32 0 2 0 C2 5.28 2 10.56 2 16 C0.35 16 -1.3 16 -3 16 C-2.67 14.35 -2.34 12.7 -2 11 C-3.32 10.67 -4.64 10.34 -6 10 C-4.68 10 -3.36 10 -2 10 C-2.04125 8.906875 -2.0825 7.81375 -2.125 6.6875 C-2 3 -2 3 0 0 Z " fill="#164A98" transform="translate(274,25)"/>
<path d="M0 0 C0.99 0 1.98 0 3 0 C3 0.99 3 1.98 3 3 C3.66 3 4.32 3 5 3 C5 2.01 5 1.02 5 0 C5.99 0 6.98 0 8 0 C8 3.3 8 6.6 8 10 C7.01 10 6.02 10 5 10 C5 8.68 5 7.36 5 6 C4.01 6.495 4.01 6.495 3 7 C2.67 7.99 2.34 8.98 2 10 C1.34 10 0.68 10 0 10 C0 6.7 0 3.4 0 0 Z " fill="#604F82" transform="translate(109,56)"/>
<path d="M0 0 C1.32 0.66 2.64 1.32 4 2 C4.32325181 6.12146058 4.39022067 8.3675734 2.1875 11.9375 C0 14 0 14 -3 14 C-2.40380045 9.13103697 -1.43023178 4.67209049 0 0 Z " fill="#E87A7F" transform="translate(323,26)"/>
<path d="M0 0 C0.66 0 1.32 0 2 0 C2.16682272 4.92127034 2.24828052 8.50343896 0 13 C0.66 12.67 1.32 12.34 2 12 C2.69227032 9.19019327 2.69227032 9.19019327 3.125 5.9375 C3.29257813 4.83277344 3.46015625 3.72804688 3.6328125 2.58984375 C3.75398437 1.73519531 3.87515625 0.88054688 4 0 C4.66 0.33 5.32 0.66 6 1 C5.58846263 5.97093824 5.20399168 10.44508386 3 15 C2.34 15 1.68 15 1 15 C1 15.66 1 16.32 1 17 C2.65 17 4.3 17 6 17 C6 17.33 6 17.66 6 18 C3.69 18 1.38 18 -1 18 C-0.67 17.01 -0.34 16.02 0 15 C-0.66 15 -1.32 15 -2 15 C-2.125 12.125 -2.125 12.125 -2 9 C-1.34 8.34 -0.68 7.68 0 7 C0.16677282 3.41656024 0.16677282 3.41656024 0 0 Z " fill="#F4ABAD" transform="translate(239,25)"/>
<path d="M0 0 C0.99 0 1.98 0 3 0 C2.67 2.31 2.34 4.62 2 7 C3.98 7 5.96 7 8 7 C7.67 7.99 7.34 8.98 7 10 C3.7 10 0.4 10 -3 10 C-1.125 1.125 -1.125 1.125 0 0 Z " fill="#4F4C87" transform="translate(36,52)"/>
<path d="M0 0 C0 5.28 0 10.56 0 16 C-1.32 16 -2.64 16 -4 16 C-4 14.35 -4 12.7 -4 11 C-5.32 10.67 -6.64 10.34 -8 10 C-6.35 10 -4.7 10 -3 10 C-3.66 8.02 -4.32 6.04 -5 4 C-1.125 0 -1.125 0 0 0 Z " fill="#0D4A9C" transform="translate(221,25)"/>
<path d="M0 0 C0.33 0.99 0.66 1.98 1 3 C-1.64 3 -4.28 3 -7 3 C-7.33 4.65 -7.66 6.3 -8 8 C-6.8553125 7.505 -6.8553125 7.505 -5.6875 7 C-3 6 -3 6 0 6 C0 6.66 0 7.32 0 8 C-2.40545638 9.20272819 -3.94996953 9.10071472 -6.625 9.0625 C-7.85089844 9.04896484 -7.85089844 9.04896484 -9.1015625 9.03515625 C-10.04128906 9.01775391 -10.04128906 9.01775391 -11 9 C-11.33 7.35 -11.66 5.7 -12 4 C-7.99899414 0.12023674 -5.51903037 -0.43286513 0 0 Z " fill="#244994" transform="translate(57,52)"/>
<path d="M0 0 C0.99 0.33 1.98 0.66 3 1 C2.2575 2.2375 2.2575 2.2375 1.5 3.5 C-0.32352081 7.75488188 -0.23673689 10.42308671 0 15 C-1.65 14.67 -3.3 14.34 -5 14 C-5.78774617 5.96498906 -5.78774617 5.96498906 -2.5 1.9375 C-1.2625 0.9784375 -1.2625 0.9784375 0 0 Z " fill="#144B99" transform="translate(155,26)"/>
<path d="M0 0 C0.33 0 0.66 0 1 0 C0.25 7.75 0.25 7.75 -2 10 C-2 8.02 -2 6.04 -2 4 C-3.32 4.33 -4.64 4.66 -6 5 C-6.66 7.31 -7.32 9.62 -8 12 C-10.97 12 -13.94 12 -17 12 C-16.67 10.68 -16.34 9.36 -16 8 C-16 8.66 -16 9.32 -16 10 C-13.69 10 -11.38 10 -9 10 C-9 8.02 -9 6.04 -9 4 C-8.43410156 3.79503906 -7.86820313 3.59007812 -7.28515625 3.37890625 C-6.55167969 3.10949219 -5.81820312 2.84007812 -5.0625 2.5625 C-4.33160156 2.29566406 -3.60070312 2.02882812 -2.84765625 1.75390625 C-1.01694322 1.14613052 -1.01694322 1.14613052 0 0 Z " fill="#F0C1C2" transform="translate(189,32)"/>
<path d="M0 0 C2.31 0 4.62 0 7 0 C7.125 2.875 7.125 2.875 7 6 C6.34 6.66 5.68 7.32 5 8 C4.30251417 9.31747324 3.63040043 10.64914193 3 12 C2.67 10.02 2.34 8.04 2 6 C1.01 6 0.02 6 -1 6 C-0.67 4.02 -0.34 2.04 0 0 Z " fill="#4F4E87" transform="translate(233,26)"/>
<path d="M0 0 C0.66 0 1.32 0 2 0 C2 0.99 2 1.98 2 3 C2.99 3 3.98 3 5 3 C5 2.01 5 1.02 5 0 C5.99 0 6.98 0 8 0 C8 2.97 8 5.94 8 9 C7.01 9.33 6.02 9.66 5 10 C5 8.35 5 6.7 5 5 C4.01 5 3.02 5 2 5 C2 6.65 2 8.3 2 10 C1.34 10 0.68 10 0 10 C0 6.7 0 3.4 0 0 Z " fill="#745280" transform="translate(241,56)"/>
<path d="M0 0 C0.99 0.33 1.98 0.66 3 1 C2.40380045 5.86896303 1.43023178 10.32790951 0 15 C-0.33 15 -0.66 15 -1 15 C-0.67 11.7 -0.34 8.4 0 5 C-1.98 5.33 -3.96 5.66 -6 6 C-6.33 6.99 -6.66 7.98 -7 9 C-6.74438677 6.6568787 -6.40729228 4.32156597 -6 2 C-4 1 -4 1 -1 1 C-0.67 0.67 -0.34 0.34 0 0 Z " fill="#DA7983" transform="translate(316,25)"/>
<path d="M0 0 C0.99 0 1.98 0 3 0 C2 5 1 10 0 15 C-1.65 15 -3.3 15 -5 15 C-4.35631658 12.87434778 -3.70998756 10.74949654 -3.0625 8.625 C-2.52302734 6.84996094 -2.52302734 6.84996094 -1.97265625 5.0390625 C-1 2 -1 2 0 0 Z " fill="#0A4B9D" transform="translate(320,26)"/>
<path d="M0 0 C0.99 0 1.98 0 3 0 C3.99 2.97 4.98 5.94 6 9 C3.69 8.67 1.38 8.34 -1 8 C-1 8.66 -1 9.32 -1 10 C-1.66 10 -2.32 10 -3 10 C-2.49287967 6.28111761 -1.88391785 3.26545761 0 0 Z " fill="#144B9B" transform="translate(121,56)"/>
<path d="M0 0 C2.0625 0.4375 2.0625 0.4375 4 1 C4 1.99 4 2.98 4 4 C2.68 3.67 1.36 3.34 0 3 C-0.226875 3.66 -0.45375 4.32 -0.6875 5 C-2.40571358 8.92734533 -4.66774607 12.41260178 -7 16 C-7.66 14.68 -8.32 13.36 -9 12 C-7.68858144 10.18671738 -6.37583526 8.37439486 -5.0625 6.5625 C-3.96615234 5.04849609 -3.96615234 5.04849609 -2.84765625 3.50390625 C-1 1 -1 1 0 0 Z " fill="#D07E87" transform="translate(46,15)"/>
<path d="M0 0 C0.99 0 1.98 0 3 0 C2.52396226 2.12570312 2.04407402 4.25054427 1.5625 6.375 C1.29566406 7.55835938 1.02882812 8.74171875 0.75390625 9.9609375 C0 13 0 13 -1 15 C-2.32 14.67 -3.64 14.34 -5 14 C-4.35799564 11.85301798 -3.71129254 9.70744047 -3.0625 7.5625 C-2.70285156 6.36753906 -2.34320313 5.17257813 -1.97265625 3.94140625 C-1 1 -1 1 0 0 Z " fill="#064C9F" transform="translate(179,26)"/>
<path d="M0 0 C4 2 4 2 5 4 C5.66 2.68 6.32 1.36 7 0 C7 2.97 7 5.94 7 9 C4.69 9 2.38 9 0 9 C0 6.03 0 3.06 0 0 Z " fill="#344D90" transform="translate(175,56)"/>
<path d="M0 0 C3.25195722 4.87793583 3.11325659 9.22391379 3 15 C2.34 13.68 1.68 12.36 1 11 C0.67 12.65 0.34 14.3 0 16 C-1.65 16 -3.3 16 -5 16 C-5 15.34 -5 14.68 -5 14 C-4.34 13.67 -3.68 13.34 -3 13 C-2.37330801 10.83532539 -1.84572626 8.64135476 -1.375 6.4375 C-1.11460937 5.23996094 -0.85421875 4.04242188 -0.5859375 2.80859375 C-0.39257812 1.88175781 -0.19921875 0.95492188 0 0 Z " fill="#8A4D72" transform="translate(245,26)"/>
<path d="M0 0 C0.33 0 0.66 0 1 0 C1 4.62 1 9.24 1 14 C-0.32 14 -1.64 14 -3 14 C-3 12.35 -3 10.7 -3 9 C-4.32 8.67 -5.64 8.34 -7 8 C-5.35 8 -3.7 8 -2 8 C-2.04125 7.05125 -2.0825 6.1025 -2.125 5.125 C-2 2 -2 2 0 0 Z " fill="#094B9D" transform="translate(113,27)"/>
<path d="M0 0 C0.99 0 1.98 0 3 0 C3.66 2.97 4.32 5.94 5 9 C4.236875 8.979375 3.47375 8.95875 2.6875 8.9375 C-0.10185786 8.87057159 -0.10185786 8.87057159 -3 10 C-2.39009109 6.44219804 -1.4216319 3.3171411 0 0 Z " fill="#104A9B" transform="translate(168,56)"/>
<path d="M0 0 C1.32 0 2.64 0 4 0 C4 1.65 4 3.3 4 5 C6.64 5.33 9.28 5.66 12 6 C12 6.33 12 6.66 12 7 C6.06 7 0.12 7 -6 7 C-6 6.34 -6 5.68 -6 5 C-4.35 5 -2.7 5 -1 5 C-0.67 3.35 -0.34 1.7 0 0 Z " fill="#F1C8C9" transform="translate(105,37)"/>
<path d="M0 0 C1.67542976 0.28604898 3.34385343 0.61781233 5 1 C4.67 1.66 4.34 2.32 4 3 C1.4375 3.625 1.4375 3.625 -1 4 C-1.33 6.64 -1.66 9.28 -2 12 C1.465 11.505 1.465 11.505 5 11 C4.34 12.32 3.68 13.64 3 15 C0.69 14.34 -1.62 13.68 -4 13 C-4.29543354 7.97762985 -4.00679573 5.0892422 -1 1 C-0.67 0.67 -0.34 0.34 0 0 Z " fill="#D1707C" transform="translate(142,26)"/>
<path d="M0 0 C2.64 0 5.28 0 8 0 C8 0.99 8 1.98 8 3 C8.66 3 9.32 3 10 3 C10 4.98 10 6.96 10 9 C9.34 9 8.68 9 8 9 C8 9.66 8 10.32 8 11 C7.01 10.67 6.02 10.34 5 10 C5.66 10 6.32 10 7 10 C4.1185719 4.53073873 4.1185719 4.53073873 0 0 Z " fill="#AA6B83" transform="translate(175,55)"/>
<path d="M0 0 C0.99 0.33 1.98 0.66 3 1 C3.33 3.64 3.66 6.28 4 9 C2.68 9 1.36 9 0 9 C0 8.34 0 7.68 0 7 C-2.31 7.33 -4.62 7.66 -7 8 C-5.68 6.68 -4.36 5.36 -3 4 C-2.01 4.33 -1.02 4.66 0 5 C-0.2784375 4.0409375 -0.2784375 4.0409375 -0.5625 3.0625 C-0.706875 2.381875 -0.85125 1.70125 -1 1 C-0.67 0.67 -0.34 0.34 0 0 Z " fill="#234B95" transform="translate(28,53)"/>
<path d="M0 0 C0.66 0 1.32 0 2 0 C2 0.66 2 1.32 2 2 C3.65 1.34 5.3 0.68 7 0 C7 2.97 7 5.94 7 9 C4 8 4 8 2 6 C1.34 6.99 0.68 7.98 0 9 C0 6.03 0 3.06 0 0 Z " fill="#394E90" transform="translate(129,56)"/>
<path d="M0 0 C1.32 0.33 2.64 0.66 4 1 C4.66 0.67 5.32 0.34 6 0 C5.01 3.3 4.02 6.6 3 10 C3.66 10.33 4.32 10.66 5 11 C1.37 11 -2.26 11 -6 11 C-6 10.67 -6 10.34 -6 10 C-3.69 10 -1.38 10 1 10 C0.67 6.7 0.34 3.4 0 0 Z " fill="#E2A8AC" transform="translate(162,56)"/>
<path d="M0 0 C1.65 0 3.3 0 5 0 C5.33 0.99 5.66 1.98 6 3 C3.525 2.01 3.525 2.01 1 1 C2.25541557 3.51083114 3.50063488 3.87125446 6 5 C6 6.32 6 7.64 6 9 C1.25 10.125 1.25 10.125 -1 9 C-1 8.34 -1 7.68 -1 7 C1.475 7.495 1.475 7.495 4 8 C4 7.34 4 6.68 4 6 C1.525 5.01 1.525 5.01 -1 4 C-0.67 2.68 -0.34 1.36 0 0 Z " fill="#1E4B96" transform="translate(233,56)"/>
<path d="M0 0 C1.32 0 2.64 0 4 0 C4.66 2.97 5.32 5.94 6 9 C5.34 9 4.68 9 4 9 C4 8.34 4 7.68 4 7 C2.35 7.33 0.7 7.66 -1 8 C-0.67 5.36 -0.34 2.72 0 0 Z " fill="#314A8E" transform="translate(205,56)"/>
<path d="M0 0 C0.86625 0.37125 0.86625 0.37125 1.75 0.75 C0.7909375 1.3996875 0.7909375 1.3996875 -0.1875 2.0625 C-2.51746003 3.66239177 -2.51746003 3.66239177 -3.25 6.75 C-1.27 6.75 0.71 6.75 2.75 6.75 C2.75 7.41 2.75 8.07 2.75 8.75 C0.11 8.75 -2.53 8.75 -5.25 8.75 C-6 6.5 -6 6.5 -6.25 3.75 C-3.32317073 -0.36924119 -3.32317073 -0.36924119 0 0 Z " fill="#1C4A96" transform="translate(65.25,52.25)"/>
<path d="M0 0 C0.99 0.33 1.98 0.66 3 1 C1.37965717 3.14949538 -0.24595794 5.2946141 -1.875 7.4375 C-2.33519531 8.04916016 -2.79539062 8.66082031 -3.26953125 9.29101562 C-6.7734375 13.88671875 -6.7734375 13.88671875 -9 15 C-9 14.01 -9 13.02 -9 12 C-8.34 12 -7.68 12 -7 12 C-6.731875 11.0925 -6.46375 10.185 -6.1875 9.25 C-5.09868368 6.27008166 -4.13608899 4.31409641 -2 2 C-1.34 2 -0.68 2 0 2 C0 1.34 0 0.68 0 0 Z " fill="#FCB4B5" transform="translate(109,25)"/>
<path d="M0 0 C0.33 0 0.66 0 1 0 C1.33 1.98 1.66 3.96 2 6 C2.99 6 3.98 6 5 6 C5.33 6.66 5.66 7.32 6 8 C7.98 8 9.96 8 12 8 C12 8.66 12 9.32 12 10 C7.05 10 2.1 10 -3 10 C-2.34 8.68 -1.68 7.36 -1 6 C-0.61709538 4.00889599 -0.27395385 2.00899487 0 0 Z " fill="#B66779" transform="translate(128,56)"/>
<path d="M0 0 C1.62463842 -0.05395478 3.24978541 -0.09277195 4.875 -0.125 C5.77992188 -0.14820313 6.68484375 -0.17140625 7.6171875 -0.1953125 C10 0 10 0 12 2 C11.34 4.31 10.68 6.62 10 9 C9.01 8.67 8.02 8.34 7 8 C7.33 5.69 7.66 3.38 8 1 C6.35 1.66 4.7 2.32 3 3 C3 2.34 3 1.68 3 1 C2.01 0.67 1.02 0.34 0 0 Z " fill="#FCD2D2" transform="translate(128,55)"/>
<path d="M0 0 C1.53166168 4.08443115 0.63081652 7.79455657 0 12 C0.66 12.33 1.32 12.66 2 13 C1.67 13.66 1.34 14.32 1 15 C-2.3 15 -5.6 15 -9 15 C-8.67 14.34 -8.34 13.68 -8 13 C-6.35 13.33 -4.7 13.66 -3 14 C-2.814375 12.205625 -2.814375 12.205625 -2.625 10.375 C-2.17674946 6.72403187 -1.29553163 3.45475101 0 0 Z " fill="#CF7380" transform="translate(206,27)"/>
<path d="M0 0 C0.33 0 0.66 0 1 0 C1 2.97 1 5.94 1 9 C0.34 9 -0.32 9 -1 9 C-1 7.35 -1 5.7 -1 4 C-2.32 4 -3.64 4 -5 4 C-5 4.66 -5 5.32 -5 6 C-4.34 6 -3.68 6 -3 6 C-3 6.66 -3 7.32 -3 8 C-4.32 7.67 -5.64 7.34 -7 7 C-7 5.35 -7 3.7 -7 2 C-4.03 2.495 -4.03 2.495 -1 3 C-0.67 2.01 -0.34 1.02 0 0 Z " fill="#EC9091" transform="translate(194,56)"/>
<path d="M0 0 C2.35953094 2.35953094 2.49141413 3.77895617 3 7 C4.65 6.67 6.3 6.34 8 6 C7.67 6.99 7.34 7.98 7 9 C5.35 9 3.7 9 2 9 C2 8.01 2 7.02 2 6 C1.34 6 0.68 6 0 6 C0 6.66 0 7.32 0 8 C-2.31 8 -4.62 8 -7 8 C-6.67 7.34 -6.34 6.68 -6 6 C-4.35 6.33 -2.7 6.66 -1 7 C-1.020625 6.030625 -1.04125 5.06125 -1.0625 4.0625 C-1 1 -1 1 0 0 Z " fill="#C05B6B" transform="translate(231,34)"/>
<path d="M0 0 C0.99 0 1.98 0 3 0 C3.125 6.625 3.125 6.625 2 10 C1.34 10 0.68 10 0 10 C0 10.66 0 11.32 0 12 C-0.99 12 -1.98 12 -3 12 C-3 10.35 -3 8.7 -3 7 C-4.65 7 -6.3 7 -8 7 C-8 6.67 -8 6.34 -8 6 C-5.33333333 6 -2.66666667 6 0 6 C0.66 4.35 1.32 2.7 2 1 C1.34 0.67 0.68 0.34 0 0 Z " fill="#FDD4D4" transform="translate(301,30)"/>
<path d="M0 0 C2.31 0 4.62 0 7 0 C7 0.66 7 1.32 7 2 C5.35 2 3.7 2 2 2 C2 2.66 2 3.32 2 4 C3.32 4.33 4.64 4.66 6 5 C4.68 5 3.36 5 2 5 C2 5.99 2 6.98 2 8 C3.65 8 5.3 8 7 8 C7 8.33 7 8.66 7 9 C4.69 9 2.38 9 0 9 C0 6.03 0 3.06 0 0 Z " fill="#034CA2" transform="translate(223,56)"/>
<path d="M0 0 C1.04973814 4.19895255 0.72795155 6.79405774 0 11 C0.99 11.33 1.98 11.66 3 12 C2.34 12.66 1.68 13.32 1 14 C-0.65 14 -2.3 14 -4 14 C-2.68 9.38 -1.36 4.76 0 0 Z " fill="#DF7A82" transform="translate(126,26)"/>
<path d="M0 0 C5.75 -0.125 5.75 -0.125 8 1 C8 3.97 8 6.94 8 10 C6 9 6 9 5 6 C2.99983534 4.79117904 2.99983534 4.79117904 1 4 C1 3.34 1 2.68 1 2 C3.475 2.99 3.475 2.99 6 4 C5.67 3.34 5.34 2.68 5 2 C2.47266765 1.34444881 2.47266765 1.34444881 0 1 C0 0.67 0 0.34 0 0 Z " fill="#DE7B82" transform="translate(233,55)"/>
<path d="M0 0 C1.37432457 3.81756824 0.67975039 7.07255329 0 11 C1.32 11.33 2.64 11.66 4 12 C1 14 1 14 -3 14 C-2.48594831 9.03083364 -1.76615118 4.70973649 0 0 Z " fill="#E0787F" transform="translate(293,26)"/>
<path d="M0 0 C0.66 0 1.32 0 2 0 C1.67 2.97 1.34 5.94 1 9 C1.99 9 2.98 9 4 9 C3.34 10.32 2.68 11.64 2 13 C1.01 13 0.02 13 -1 13 C-2.51403812 8.15507803 -1.36602172 4.7408989 0 0 Z " fill="#FBC0C0" transform="translate(207,26)"/>
<path d="M0 0 C2.97 0 5.94 0 9 0 C9 0.99 9 1.98 9 3 C10.32 3.33 11.64 3.66 13 4 C12.525625 4.350625 12.05125 4.70125 11.5625 5.0625 C9.32126175 7.84163543 9.32882342 10.5144717 9 14 C8.67 14 8.34 14 8 14 C8 11.69 8 9.38 8 7 C7.34 6.67 6.68 6.34 6 6 C6.66 6 7.32 6 8 6 C8 4.35 8 2.7 8 1 C5.36 1 2.72 1 0 1 C0 0.67 0 0.34 0 0 Z " fill="#E97E84" transform="translate(141,24)"/>
<path d="M0 0 C0.33 1.32 0.66 2.64 1 4 C-3.62 4 -8.24 4 -13 4 C-13.33 3.01 -13.66 2.02 -14 1 C-7.07 1.495 -7.07 1.495 0 2 C0 1.34 0 0.68 0 0 Z " fill="#C57984" transform="translate(297,39)"/>
<path d="M0 0 C0.66 0 1.32 0 2 0 C2 2.64 2 5.28 2 8 C1.34 8 0.68 8 0 8 C-0.33 9.65 -0.66 11.3 -1 13 C-2.32 13.33 -3.64 13.66 -5 14 C-4.72285156 13.49210937 -4.44570312 12.98421875 -4.16015625 12.4609375 C-1.9665317 8.2922702 -0.47586845 4.75868447 0 0 Z " fill="#FAD2D2" transform="translate(167,27)"/>
<path d="M0 0 C0.33 1.32 0.66 2.64 1 4 C1.99 4 2.98 4 4 4 C4.99 4.33 5.98 4.66 7 5 C4.6875 7.5 4.6875 7.5 2 10 C1.01 10 0.02 10 -1 10 C-1.125 3.375 -1.125 3.375 0 0 Z " fill="#FCC6C7" transform="translate(262,28)"/>
<path d="M0 0 C1.32 0.33 2.64 0.66 4 1 C2.9171875 1.804375 2.9171875 1.804375 1.8125 2.625 C-1.247842 5.2092888 -3.51220011 7.87248014 -6 11 C-6.33 9.68 -6.66 8.36 -7 7 C-6.01 6.34 -5.02 5.68 -4 5 C-3.67 4.01 -3.34 3.02 -3 2 C-2.01 2 -1.02 2 0 2 C0 1.34 0 0.68 0 0 Z " fill="#FAB0B1" transform="translate(218,24)"/>
<path d="M0 0 C1.98 0 3.96 0 6 0 C5.49396008 2.16874252 5.00016187 3.99967627 4 6 C2.68 5.67 1.36 5.34 0 5 C0 3.35 0 1.7 0 0 Z " fill="#FEEFEF" transform="translate(40,53)"/>
<path d="M0 0 C0.99 0 1.98 0 3 0 C3 0.99 3 1.98 3 3 C5.31 3 7.62 3 10 3 C10 3.66 10 4.32 10 5 C6.04 5 2.08 5 -2 5 C-1.34 3.35 -0.68 1.7 0 0 Z " fill="#F1D0D0" transform="translate(267,39)"/>
<path d="M0 0 C2.9375 1.625 2.9375 1.625 6 4 C6.875 7.25 6.875 7.25 7 10 C6.01 10 5.02 10 4 10 C0 3.375 0 3.375 0 0 Z " fill="#EDBBBD" transform="translate(66,42)"/>
<path d="M0 0 C1.3609623 2.7219246 0.70366248 4.1831957 0.0625 7.125 C-0.13214844 8.03507812 -0.32679688 8.94515625 -0.52734375 9.8828125 C-0.68332031 10.58148438 -0.83929688 11.28015625 -1 12 C-0.01 12.33 0.98 12.66 2 13 C1.360625 13.12375 0.72125 13.2475 0.0625 13.375 C-0.618125 13.58125 -1.29875 13.7875 -2 14 C-2.33 14.66 -2.66 15.32 -3 16 C-3.37952295 9.80112515 -2.8352113 5.5522888 0 0 Z " fill="#E18187" transform="translate(262,26)"/>
<path d="M0 0 C0.66 0 1.32 0 2 0 C2.99 2.97 3.98 5.94 5 9 C3.68 9 2.36 9 1 9 C-1.09230769 4.56923077 -1.09230769 4.56923077 -0.625 1.6875 C-0.41875 1.130625 -0.2125 0.57375 0 0 Z " fill="#084B9E" transform="translate(233,32)"/>
<path d="M0 0 C0 1.65 0 3.3 0 5 C-0.66 5 -1.32 5 -2 5 C-2.33 4.01 -2.66 3.02 -3 2 C-4.98 2.33 -6.96 2.66 -9 3 C-9.33 2.34 -9.66 1.68 -10 1 C-6.78548731 -0.60725635 -3.56387464 -0.05748185 0 0 Z M-12 2 C-11.34 2.33 -10.68 2.66 -10 3 C-11.65 4.32 -13.3 5.64 -15 7 C-13.125 3.125 -13.125 3.125 -12 2 Z " fill="#30478D" transform="translate(149,25)"/>
<path d="M0 0 C1.20366211 0.00966797 1.20366211 0.00966797 2.43164062 0.01953125 C3.26501953 0.03628906 4.09839844 0.05304687 4.95703125 0.0703125 C6.22450195 0.08384766 6.22450195 0.08384766 7.51757812 0.09765625 C9.60168368 0.12120547 11.68564342 0.15707603 13.76953125 0.1953125 C13.76953125 0.8553125 13.76953125 1.5153125 13.76953125 2.1953125 C12.74472656 2.17210938 11.71992188 2.14890625 10.6640625 2.125 C9.30339274 2.10623214 7.94271505 2.08803303 6.58203125 2.0703125 C5.90849609 2.05355469 5.23496094 2.03679688 4.54101562 2.01953125 C0.48145318 1.97992576 -2.5804569 2.39511248 -6.23046875 4.1953125 C-6.56046875 3.5353125 -6.89046875 2.8753125 -7.23046875 2.1953125 C-4.12961304 0.12807536 -3.50115194 -0.04966173 0 0 Z " fill="#FEE6E6" transform="translate(195.23046875,21.8046875)"/>
<path d="M0 0 C0.99 0 1.98 0 3 0 C2.49396008 2.16874252 2.00016187 3.99967627 1 6 C-2.63 6 -6.26 6 -10 6 C-10.33 5.34 -10.66 4.68 -11 4 C-3.375 2.75 -3.375 2.75 0 5 C0 3.35 0 1.7 0 0 Z " fill="#D99E9F" transform="translate(243,61)"/>
<path d="M0 0 C1.32 0 2.64 0 4 0 C4.625 1.875 4.625 1.875 5 4 C3 6 3 6 0.375 6.125 C-0.40875 6.08375 -1.1925 6.0425 -2 6 C-1.34 4.02 -0.68 2.04 0 0 Z " fill="#694E7F" transform="translate(140,56)"/>
<path d="M0 0 C4.62 0 9.24 0 14 0 C14 0.66 14 1.32 14 2 C11.35541621 3.32229189 9.32238699 3.09677194 6.375 3.0625 C5.37210937 3.05347656 4.36921875 3.04445312 3.3359375 3.03515625 C2.56507813 3.02355469 1.79421875 3.01195312 1 3 C0.67 2.01 0.34 1.02 0 0 Z " fill="#C47680" transform="translate(313,40)"/>
<path d="M0 0 C0 0.33 0 0.66 0 1 C-2.31 1 -4.62 1 -7 1 C-7 1.66 -7 2.32 -7 3 C-9.31 4.32 -11.62 5.64 -14 7 C-13.8125 4.625 -13.8125 4.625 -13 2 C-8.91343412 -0.60054192 -4.67631878 -0.15851928 0 0 Z " fill="#F7B3B6" transform="translate(148,23)"/>
<path d="M0 0 C4.62 0 9.24 0 14 0 C13.34 1.32 12.68 2.64 12 4 C12 3.34 12 2.68 12 2 C5.68731397 1.62447835 5.68731397 1.62447835 0 4 C0 2.68 0 1.36 0 0 Z " fill="#254891" transform="translate(302,25)"/>
<path d="M0 0 C-0.33 2.31 -0.66 4.62 -1 7 C-1.33 7 -1.66 7 -2 7 C-2 5.35 -2 3.7 -2 2 C-2.66 2 -3.32 2 -4 2 C-4 2.99 -4 3.98 -4 5 C-4.66 5 -5.32 5 -6 5 C-6.33 5.99 -6.66 6.98 -7 8 C-6.74438677 5.6568787 -6.40729228 3.32156597 -6 1 C-4 0 -4 0 0 0 Z " fill="#FACCCC" transform="translate(316,30)"/>
<path d="M0 0 C0.33 0 0.66 0 1 0 C1 2.97 1 5.94 1 9 C1.66 9.33 2.32 9.66 3 10 C0.69 10.33 -1.62 10.66 -4 11 C-4 10.34 -4 9.68 -4 9 C-4.66 8.67 -5.32 8.34 -6 8 C-3.525 8.495 -3.525 8.495 -1 9 C-0.67 6.03 -0.34 3.06 0 0 Z " fill="#DB999E" transform="translate(174,56)"/>
<path d="M0 0 C1.4606285 2.64738916 2 3.89448334 2 7 C0.68 6.67 -0.64 6.34 -2 6 C-2 6.66 -2 7.32 -2 8 C-2.66 8 -3.32 8 -4 8 C-3.67 6.02 -3.34 4.04 -3 2 C-2.34 2 -1.68 2 -1 2 C-0.67 1.34 -0.34 0.68 0 0 Z " fill="#7A4B73" transform="translate(122,58)"/>
<path d="M0 0 C0.99 0 1.98 0 3 0 C3.20086443 3.71599191 3.1519437 4.77208445 1 8 C0.34 8 -0.32 8 -1 8 C-1.04241723 5.66705225 -1.04092937 3.33297433 -1 1 C-0.67 0.67 -0.34 0.34 0 0 Z " fill="#FCCDCD" transform="translate(157,29)"/>
<path d="M0 0 C1.65 0 3.3 0 5 0 C5 1.98 5 3.96 5 6 C3.35 6 1.7 6 0 6 C0 4.02 0 2.04 0 0 Z " fill="#CB6871" transform="translate(225,58)"/>
<path d="M0 0 C2.5 2.3125 2.5 2.3125 5 5 C5 5.99 5 6.98 5 8 C3.02 8 1.04 8 -1 8 C-0.34 7.67 0.32 7.34 1 7 C0.67 4.69 0.34 2.38 0 0 Z " fill="#DFA6AA" transform="translate(78,56)"/>
<path d="M0 0 C0.33 0 0.66 0 1 0 C1.36666667 5.5 1.36666667 5.5 -0.375 7.875 C-2 9 -2 9 -4 9 C-2.25 2.25 -2.25 2.25 0 0 Z " fill="#FAD9D9" transform="translate(24,49)"/>
<path d="M0 0 C0.33 0.66 0.66 1.32 1 2 C-2.44615385 7.78461538 -2.44615385 7.78461538 -5.25 8.875 C-5.8275 8.91625 -6.405 8.9575 -7 9 C-6.82374165 6.62051228 -6.30280227 5.29774151 -4.59765625 3.62109375 C-3.09350908 2.37884514 -1.54870149 1.18623944 0 0 Z " fill="#214F99" transform="translate(28,38)"/>
<path d="M0 0 C0 3.86695678 -1.41909971 6.5088452 -3 10 C-4.65 10 -6.3 10 -8 10 C-8 8 -8 8 -5.6875 5.5625 C-4.800625 4.716875 -3.91375 3.87125 -3 3 C-2.401875 2.401875 -1.80375 1.80375 -1.1875 1.1875 C-0.795625 0.795625 -0.40375 0.40375 0 0 Z " fill="#5B4C82" transform="translate(107,32)"/>
<path d="M0 0 C0.99 0 1.98 0 3 0 C3 3.3 3 6.6 3 10 C4.32 10.33 5.64 10.66 7 11 C6.67 12.32 6.34 13.64 6 15 C5.67 14.01 5.34 13.02 5 12 C4.01 11.67 3.02 11.34 2 11 C1.34 7.37 0.68 3.74 0 0 Z " fill="#FEBDBD" transform="translate(330,26)"/>
<path d="M0 0 C0 0.99 0 1.98 0 3 C-0.66 3.66 -1.32 4.32 -2 5 C-4.72869407 4.96712417 -7.2966618 4.43602229 -10 4 C-10 3.34 -10 2.68 -10 2 C-6.7 1.34 -3.4 0.68 0 0 Z " fill="#C18B91" transform="translate(71,59)"/>
<path d="M0 0 C0.66 0.99 1.32 1.98 2 3 C4.64 2.67 7.28 2.34 10 2 C10 2.66 10 3.32 10 4 C7.59454362 5.20272819 6.05003047 5.10071472 3.375 5.0625 C2.14910156 5.04896484 2.14910156 5.04896484 0.8984375 5.03515625 C-0.04128906 5.01775391 -0.04128906 5.01775391 -1 5 C-0.67 3.35 -0.34 1.7 0 0 Z " fill="#0E4B9C" transform="translate(47,56)"/>
<path d="M0 0 C0.33 0 0.66 0 1 0 C1.06058594 0.74765625 1.12117188 1.4953125 1.18359375 2.265625 C1.26738281 3.25046875 1.35117188 4.2353125 1.4375 5.25 C1.51871094 6.22453125 1.59992188 7.1990625 1.68359375 8.203125 C1.95074584 10.56461753 2.35371968 12.71901065 3 15 C2.34 15 1.68 15 1 15 C0.67 15.66 0.34 16.32 0 17 C0 11.39 0 5.78 0 0 Z " fill="#FEBABA" transform="translate(115,25)"/>
<path d="M0 0 C1.41687119 4.25061356 0.19320039 6.71851625 -1 11 C-1.33 11 -1.66 11 -2 11 C-2 8.69 -2 6.38 -2 4 C-2.99 4 -3.98 4 -5 4 C-3.74458443 1.48916886 -2.49936512 1.12874554 0 0 Z " fill="#D1646F" transform="translate(306,26)"/>
<path d="M0 0 C2.64 0 5.28 0 8 0 C8 0.66 8 1.32 8 2 C6.02 2 4.04 2 2 2 C1.34 3.32 0.68 4.64 0 6 C-1 3 -1 3 0 0 Z " fill="#F2A4A8" transform="translate(256,23)"/>
<path d="M0 0 C0.598125 0.226875 1.19625 0.45375 1.8125 0.6875 C1.8125 1.6775 1.8125 2.6675 1.8125 3.6875 C0.4925 3.3575 -0.8275 3.0275 -2.1875 2.6875 C-2.8475 4.0075 -3.5075 5.3275 -4.1875 6.6875 C-4.875 4.875 -4.875 4.875 -5.1875 2.6875 C-3.58493056 0.24147296 -2.95482043 -0.4221172 0 0 Z " fill="#C37680" transform="translate(48.1875,15.3125)"/>
<path d="M0 0 C1.32 0 2.64 0 4 0 C4 1.65 4 3.3 4 5 C2.68 5.33 1.36 5.66 0 6 C0 4.02 0 2.04 0 0 Z " fill="#D2868F" transform="translate(101,58)"/>
<path d="M0 0 C1.32 0 2.64 0 4 0 C4 1.65 4 3.3 4 5 C2.68 5.33 1.36 5.66 0 6 C0 4.02 0 2.04 0 0 Z " fill="#DC848A" transform="translate(215,58)"/>
<path d="M0 0 C1.31223496 3.93670488 0.24296256 6.12488144 -1 10 C-1.66 8.68 -2.32 7.36 -3 6 C-3.99 6.495 -3.99 6.495 -5 7 C-3.75023244 3.34683329 -3.32901247 2.21934164 0 0 Z " fill="#DC999E" transform="translate(27,44)"/>
<path d="M0 0 C0.66 0.66 1.32 1.32 2 2 C1.96712417 4.72869407 1.43602229 7.2966618 1 10 C0.01 10.33 -0.98 10.66 -2 11 C-1.855625 10.29875 -1.71125 9.5975 -1.5625 8.875 C-0.98521625 5.92443859 -0.48304859 2.96729849 0 0 Z " fill="#FEE0E0" transform="translate(241,27)"/>
<path d="M0 0 C0.33 0.66 0.66 1.32 1 2 C2.32 2 3.64 2 5 2 C5 3.65 5 5.3 5 7 C3.68 6.67 2.36 6.34 1 6 C0.67 4.02 0.34 2.04 0 0 Z " fill="#BF8B9E" transform="translate(145,60)"/>
<path d="M0 0 C0.66 0 1.32 0 2 0 C2 1.32 2 2.64 2 4 C2.66 4.33 3.32 4.66 4 5 C3.34 5 2.68 5 2 5 C2 6.65 2 8.3 2 10 C1.34 10 0.68 10 0 10 C0 6.7 0 3.4 0 0 Z " fill="#1F4C96" transform="translate(241,56)"/>
<path d="M0 0 C1.32 0 2.64 0 4 0 C3.01 3.3 2.02 6.6 1 10 C0.67 10 0.34 10 0 10 C0 6.7 0 3.4 0 0 Z " fill="#FCC9C9" transform="translate(117,56)"/>
<path d="M0 0 C0.66 0 1.32 0 2 0 C1.67 1.98 1.34 3.96 1 6 C1.99 6.33 2.98 6.66 4 7 C2.824375 6.9690625 2.824375 6.9690625 1.625 6.9375 C-0.98114961 6.81315937 -0.98114961 6.81315937 -3 8 C-1.125 2.25 -1.125 2.25 0 0 Z " fill="#3F4A8B" transform="translate(44,40)"/>
<path d="M0 0 C0.99 0.33 1.98 0.66 3 1 C2.67 2.65 2.34 4.3 2 6 C0.68 6.33 -0.64 6.66 -2 7 C-1.34 4.69 -0.68 2.38 0 0 Z " fill="#CB4C59" transform="translate(182,26)"/>
<path d="M0 0 C2.5 2.3125 2.5 2.3125 5 5 C5 5.99 5 6.98 5 8 C4.01 8 3.02 8 2 8 C-0.1519437 4.77208445 -0.20086443 3.71599191 0 0 Z " fill="#CF868E" transform="translate(56,26)"/>
<path d="M0 0 C0.99 1.485 0.99 1.485 2 3 C2.99 3.66 3.98 4.32 5 5 C3.515 7.475 3.515 7.475 2 10 C-0.09350689 6.5980513 -0.17942163 3.94727588 0 0 Z " fill="#EA747B" transform="translate(250,25)"/>
<path d="M0 0 C2.64 0 5.28 0 8 0 C8 0.66 8 1.32 8 2 C9.32 1.67 10.64 1.34 12 1 C11.67 2.32 11.34 3.64 11 5 C9.68 4.67 8.36 4.34 7 4 C7 3.01 7 2.02 7 1 C4.69 1 2.38 1 0 1 C0 0.67 0 0.34 0 0 Z " fill="#FBBDBE" transform="translate(244,24)"/>
<path d="M0 0 C0.33 0 0.66 0 1 0 C1 2.97 1 5.94 1 9 C-0.32 9.33 -1.64 9.66 -3 10 C-2.34 9.67 -1.68 9.34 -1 9 C-1.33 7.02 -1.66 5.04 -2 3 C-1.34 3 -0.68 3 0 3 C0 2.01 0 1.02 0 0 Z " fill="#ECA1A5" transform="translate(212,56)"/>
<path d="M0 0 C0.33 0 0.66 0 1 0 C1.33 1.98 1.66 3.96 2 6 C0.02 6.66 -1.96 7.32 -4 8 C-3.67 6.68 -3.34 5.36 -3 4 C-2.34 4 -1.68 4 -1 4 C-0.67 2.68 -0.34 1.36 0 0 Z " fill="#714873" transform="translate(169,58)"/>
<path d="M0 0 C1.4540625 0.0309375 1.4540625 0.0309375 2.9375 0.0625 C3.2675 1.0525 3.5975 2.0425 3.9375 3.0625 C0.9675 2.5675 0.9675 2.5675 -2.0625 2.0625 C-2.3925 3.3825 -2.7225 4.7025 -3.0625 6.0625 C-3.44468767 4.40635343 -3.77645102 2.73792976 -4.0625 1.0625 C-3.0625 0.0625 -3.0625 0.0625 0 0 Z " fill="#3B498B" transform="translate(189.0625,55.9375)"/>
<path d="M0 0 C2.64 0 5.28 0 8 0 C7.01 0.495 7.01 0.495 6 1 C6 2.98 6 4.96 6 7 C5.38125 6.21625 4.7625 5.4325 4.125 4.625 C2.10141339 2.03162353 2.10141339 2.03162353 0 0 Z " fill="#EB969B" transform="translate(175,55)"/>
<path d="M0 0 C0.66 0.33 1.32 0.66 2 1 C0.84826645 3.46800047 -0.04783565 5.04783565 -2 7 C-2.99 6.67 -3.98 6.34 -5 6 C-3.35 4.02 -1.7 2.04 0 0 Z " fill="#2D4C93" transform="translate(44,13)"/>
<path d="M0 0 C1.65 0 3.3 0 5 0 C5.33 0.99 5.66 1.98 6 3 C3.525 2.01 3.525 2.01 1 1 C1.66 2.32 2.32 3.64 3 5 C1.68 4.67 0.36 4.34 -1 4 C-0.67 2.68 -0.34 1.36 0 0 Z " fill="#124D9D" transform="translate(233,56)"/>
<path d="M0 0 C0.66 0 1.32 0 2 0 C2 2.31 2 4.62 2 7 C1.01 7 0.02 7 -1 7 C-1.04254356 5.00045254 -1.04080783 2.99958364 -1 1 C-0.67 0.67 -0.34 0.34 0 0 Z " fill="#FCAEAD" transform="translate(324,29)"/>
<path d="M0 0 C1.32 0.66 2.64 1.32 4 2 C4 4.31 4 6.62 4 9 C3.67 9 3.34 9 3 9 C3 7.02 3 5.04 3 3 C0.66924071 3.95865509 0.66924071 3.95865509 -1 7 C-0.67 4.69 -0.34 2.38 0 0 Z " fill="#C44F5D" transform="translate(323,26)"/>
<path d="M0 0 C1.65 0 3.3 0 5 0 C4.34 1.65 3.68 3.3 3 5 C2.01 4.67 1.02 4.34 0 4 C0 2.68 0 1.36 0 0 Z " fill="#F9DBDB" transform="translate(31,52)"/>
<path d="M0 0 C0.66 0.66 1.32 1.32 2 2 C1.625 4.125 1.625 4.125 1 6 C-0.65 6 -2.3 6 -4 6 C-4 4 -4 4 -2 1.875 C-1.34 1.25625 -0.68 0.6375 0 0 Z " fill="#7A4F7A" transform="translate(265,36)"/>
<path d="M0 0 C1.32 0 2.64 0 4 0 C4 0.99 4 1.98 4 3 C1.03 3 -1.94 3 -5 3 C-3.68 2.34 -2.36 1.68 -1 1 C-0.67 0.67 -0.34 0.34 0 0 Z " fill="#EBD3D3" transform="translate(24,61)"/>
<path d="M0 0 C1.98 0.99 1.98 0.99 4 2 C4 2.99 4 3.98 4 5 C2.68 5.33 1.36 5.66 0 6 C0 4.02 0 2.04 0 0 Z " fill="#F7DDDD" transform="translate(73,53)"/>
<path d="M0 0 C0.99 0 1.98 0 3 0 C3.125 6.625 3.125 6.625 2 10 C1.34 10 0.68 10 0 10 C0.58803797 6.97580475 1.22678118 3.98241547 2 1 C1.34 0.67 0.68 0.34 0 0 Z " fill="#FBBFBE" transform="translate(301,30)"/>
<path d="M0 0 C2.64 0.33 5.28 0.66 8 1 C6 3 6 3 2.375 3.125 C1.26125 3.08375 0.1475 3.0425 -1 3 C-0.67 2.01 -0.34 1.02 0 0 Z " fill="#FEE1E1" transform="translate(71,61)"/>
<path d="M0 0 C1.32 0 2.64 0 4 0 C4 2.31 4 4.62 4 7 C1.49962266 4.82575883 0.56371414 3.26954202 0 0 Z " fill="#F8BCBE" transform="translate(124,56)"/>
<path d="M0 0 C2.31 0 4.62 0 7 0 C7 0.66 7 1.32 7 2 C5.35 2 3.7 2 2 2 C1.67 2.66 1.34 3.32 1 4 C0.67 2.68 0.34 1.36 0 0 Z " fill="#1A4B9A" transform="translate(223,56)"/>
<path d="M0 0 C0.66 0.33 1.32 0.66 2 1 C1.67 1.99 1.34 2.98 1 4 C-0.65 4 -2.3 4 -4 4 C-3.67 3.01 -3.34 2.02 -3 1 C-2.01 0.67 -1.02 0.34 0 0 Z " fill="#674877" transform="translate(161,56)"/>
<path d="M0 0 C0.99 0 1.98 0 3 0 C3 1.32 3 2.64 3 4 C1.35 4 -0.3 4 -2 4 C-1.34 2.68 -0.68 1.36 0 0 Z " fill="#F4CBCC" transform="translate(65,55)"/>
<path d="M0 0 C3.3 0 6.6 0 10 0 C9.01 1.485 9.01 1.485 8 3 C8 2.34 8 1.68 8 1 C6.35 1.66 4.7 2.32 3 3 C3 2.34 3 1.68 3 1 C2.01 0.67 1.02 0.34 0 0 Z " fill="#F4B5B8" transform="translate(128,55)"/>
<path d="M0 0 C1 2 1 2 0.0625 5.125 C-0.288125 6.07375 -0.63875 7.0225 -1 8 C-1.99 7.67 -2.98 7.34 -4 7 C-2.92598892 4.08482708 -2.22189824 2.22189824 0 0 Z " fill="#D0888F" transform="translate(30,38)"/>
<path d="M0 0 C0.33 0.99 0.66 1.98 1 3 C-3.75 5.875 -3.75 5.875 -6 7 C-4.52307692 2.32307692 -4.52307692 2.32307692 -1.875 0.6875 C-1.25625 0.460625 -0.6375 0.23375 0 0 Z " fill="#3F5091" transform="translate(30,35)"/>
<path d="M0 0 C0.66 0 1.32 0 2 0 C1.74438677 2.3431213 1.40729228 4.67843403 1 7 C0.01 7.495 0.01 7.495 -1 8 C-0.67 5.36 -0.34 2.72 0 0 Z " fill="#FEF5F5" transform="translate(312,32)"/>
<path d="M0 0 C0.99 0.33 1.98 0.66 3 1 C2.6875 2.9375 2.6875 2.9375 2 5 C1.01 5.33 0.02 5.66 -1 6 C-0.67 4.02 -0.34 2.04 0 0 Z " fill="#CD4855" transform="translate(233,26)"/>
<path d="M0 0 C0.99 0.33 1.98 0.66 3 1 C1.69593116 3.01920337 0.36176581 5.01924973 -1 7 C-1.33 7 -1.66 7 -2 7 C-2.125 4.625 -2.125 4.625 -2 2 C-1.34 1.34 -0.68 0.68 0 0 Z " fill="#FBB2B3" transform="translate(271,25)"/>
<path d="M0 0 C0.33 0 0.66 0 1 0 C0.38461538 7.50769231 0.38461538 7.50769231 -1.5625 10 C-2.036875 10.33 -2.51125 10.66 -3 11 C-2.44894091 7.0507432 -1.61064629 3.65079826 0 0 Z " fill="#FCD9D9" transform="translate(296,23)"/>
</svg>
